<?xml version="1.0" encoding="utf-8"?>
<!-- Generator: Adobe Illustrator 23.0.0, SVG Export Plug-In . SVG Version: 6.00 Build 0)  -->
<svg version="1.1" id="Camada_1" xmlns="http://www.w3.org/2000/svg" xmlns:xlink="http://www.w3.org/1999/xlink" x="0px" y="0px"
	 viewBox="0 0 1299.89 731.19" style="enable-background:new 0 0 1299.89 731.19;" xml:space="preserve">
<style type="text/css">
	.st0{fill:url(#SVGID_1_);}
	.st1{fill:url(#SVGID_2_);}
	.st2{fill:#DD4ACF;}
	.st3{fill:url(#SVGID_3_);}
	.st4{fill:url(#SVGID_4_);}
	.st5{fill:url(#SVGID_5_);}
	.st6{fill:url(#SVGID_6_);}
	.st7{fill:url(#SVGID_7_);}
	.st8{fill:url(#SVGID_8_);}
	.st9{fill:url(#SVGID_9_);}
	.st10{fill:url(#SVGID_10_);}
	.st11{fill:url(#SVGID_11_);}
	.st12{fill:url(#SVGID_12_);}
	.st13{fill:url(#SVGID_13_);}
	.st14{fill:url(#SVGID_14_);}
	.st15{fill:url(#SVGID_15_);}
	.st16{fill:url(#SVGID_16_);}
	.st17{fill:url(#SVGID_17_);}
	.st18{fill:url(#SVGID_18_);}
	.st19{fill:url(#SVGID_19_);}
	.st20{fill:url(#SVGID_20_);}
	.st21{fill:url(#SVGID_21_);}
	.st22{fill:url(#SVGID_22_);}
	.st23{fill:url(#SVGID_23_);}
	.st24{fill:url(#SVGID_24_);}
	.st25{fill:url(#SVGID_25_);}
	.st26{fill:url(#SVGID_26_);}
	.st27{fill:url(#SVGID_27_);}
	.st28{fill:url(#SVGID_28_);}
	.st29{fill:url(#SVGID_29_);}
	.st30{fill:url(#SVGID_30_);}
	.st31{fill:url(#SVGID_31_);}
	.st32{fill:url(#SVGID_32_);}
	.st33{fill:url(#SVGID_33_);}
	.st34{fill:url(#SVGID_34_);}
	.st35{fill:url(#SVGID_35_);}
	.st36{fill:url(#SVGID_36_);}
	.st37{fill:url(#SVGID_37_);}
	.st38{fill:url(#SVGID_38_);}
	.st39{fill:url(#SVGID_39_);}
	.st40{fill:url(#SVGID_40_);}
	.st41{fill:url(#SVGID_41_);}
	.st42{fill:url(#SVGID_42_);}
	.st43{fill:url(#SVGID_43_);}
	.st44{fill:url(#SVGID_44_);}
	.st45{fill:url(#SVGID_45_);}
	.st46{fill:url(#SVGID_46_);}
	.st47{fill:url(#SVGID_47_);}
	.st48{fill:url(#SVGID_48_);}
	.st49{fill:url(#SVGID_49_);}
	.st50{fill:url(#SVGID_50_);}
	.st51{fill:url(#SVGID_51_);}
	.st52{fill:url(#SVGID_52_);}
	.st53{fill:url(#SVGID_53_);}
	.st54{fill:url(#SVGID_54_);}
	.st55{fill:url(#SVGID_55_);}
	.st56{fill:url(#SVGID_56_);}
	.st57{fill:url(#SVGID_57_);}
	.st58{fill:url(#SVGID_58_);}
	.st59{fill:url(#SVGID_59_);}
	.st60{fill:url(#SVGID_60_);}
	.st61{fill:url(#SVGID_61_);}
	.st62{fill:url(#SVGID_62_);}
	.st63{fill:url(#SVGID_63_);}
	.st64{fill:url(#SVGID_64_);}
	.st65{fill:url(#SVGID_65_);}
	.st66{fill:url(#SVGID_66_);}
	.st67{fill:url(#SVGID_67_);}
	.st68{fill:url(#SVGID_68_);}
	.st69{fill:url(#SVGID_69_);}
	.st70{fill:url(#SVGID_70_);}
	.st71{fill:url(#SVGID_71_);}
	.st72{fill:url(#SVGID_72_);}
	.st73{fill:url(#SVGID_73_);}
	.st74{fill:url(#SVGID_74_);}
	.st75{fill:url(#SVGID_75_);}
	.st76{fill:url(#SVGID_76_);}
	.st77{fill:url(#SVGID_77_);}
	.st78{fill:url(#SVGID_78_);}
	.st79{fill:url(#SVGID_79_);}
	.st80{fill:url(#SVGID_80_);}
	.st81{fill:url(#SVGID_81_);}
	.st82{fill:url(#SVGID_82_);}
</style>
<g>
	<g>
		<radialGradient id="SVGID_1_" cx="240.7734" cy="666.664" r="56.8364" gradientUnits="userSpaceOnUse">
			<stop  offset="0" style="stop-color:#1B0335"/>
			<stop  offset="1" style="stop-color:#FFFFFF"/>
		</radialGradient>
		<path class="st0" d="M298.1,661.54c0,33.95-27.52,61.47-61.47,61.47c-22.71,0-42.54-12.31-53.18-30.63
			c9.74,6.47,21.42,10.24,33.99,10.24c33.95,0,61.47-27.51,61.47-61.46c0-11.24-3.01-21.77-8.29-30.83
			C287.18,621.33,298.1,640.16,298.1,661.54z"/>
		<linearGradient id="SVGID_2_" gradientUnits="userSpaceOnUse" x1="278.7411" y1="702.4569" x2="142.333" y2="566.0488">
			<stop  offset="0" style="stop-color:#FFB717"/>
			<stop  offset="0.1678" style="stop-color:#FF9E2D"/>
			<stop  offset="0.525" style="stop-color:#FF5E65"/>
			<stop  offset="1" style="stop-color:#FF00B7"/>
		</linearGradient>
		<path class="st1" d="M217.43,579.68c-33.95,0-61.47,27.52-61.47,61.47c0,33.95,27.52,61.47,61.47,61.47
			c33.95,0,61.47-27.52,61.47-61.47C278.9,607.2,251.38,579.68,217.43,579.68z M217.43,688.18c-25.98,0-47.03-21.06-47.03-47.03
			c0-25.98,21.06-47.03,47.03-47.03s47.03,21.06,47.03,47.03C264.47,667.13,243.41,688.18,217.43,688.18z"/>
	</g>
	<g>
		<g>
			<path class="st2" d="M705.45,607.16c-1.1,0-2,0.89-2,2c0,1.1,0.89,2,2,2s2-0.89,2-2C707.45,608.05,706.56,607.16,705.45,607.16z"
				/>
			<path class="st2" d="M721.06,607.16c-1.1,0-2,0.89-2,2c0,1.1,0.89,2,2,2c1.1,0,2-0.89,2-2
				C723.06,608.05,722.17,607.16,721.06,607.16z"/>
			<path class="st2" d="M736.67,607.16c-1.1,0-2,0.89-2,2c0,1.1,0.89,2,2,2s2-0.89,2-2C738.67,608.05,737.78,607.16,736.67,607.16z"
				/>
			<path class="st2" d="M752.29,607.16c-1.1,0-2,0.89-2,2c0,1.1,0.89,2,2,2c1.1,0,2-0.89,2-2
				C754.28,608.05,753.39,607.16,752.29,607.16z"/>
			<path class="st2" d="M767.9,607.16c-1.1,0-2,0.89-2,2c0,1.1,0.89,2,2,2c1.1,0,2-0.89,2-2C769.89,608.05,769,607.16,767.9,607.16z
				"/>
			<path class="st2" d="M783.51,611.15c0.68,0,1.27-0.34,1.63-0.85c-1.09-0.75-2.21-1.48-3.34-2.17c-0.18,0.3-0.29,0.65-0.29,1.03
				C781.51,610.26,782.4,611.15,783.51,611.15z"/>
			<path class="st2" d="M682.55,625.76c1.1,0,2-0.89,2-2c0-0.88-0.57-1.62-1.36-1.88c-0.83,0.9-1.64,1.82-2.43,2.76
				C681.1,625.3,681.77,625.76,682.55,625.76z"/>
			<circle class="st2" cx="698.17" cy="623.76" r="2"/>
			<circle class="st2" cx="713.78" cy="623.76" r="2"/>
			<path class="st2" d="M729.39,621.76c-1.1,0-2,0.89-2,2c0,1.1,0.89,2,2,2c1.1,0,2-0.89,2-2
				C731.39,622.66,730.49,621.76,729.39,621.76z"/>
			<circle class="st2" cx="745" cy="623.76" r="2"/>
			<circle class="st2" cx="760.61" cy="623.76" r="2"/>
			<circle class="st2" cx="776.22" cy="623.76" r="2"/>
			<circle class="st2" cx="791.83" cy="623.76" r="2"/>
			<path class="st2" d="M674.23,636.37c-1.1,0-2,0.89-2,2s0.89,2,2,2c1.1,0,2-0.89,2-2S675.33,636.37,674.23,636.37z"/>
			<path class="st2" d="M689.84,636.37c-1.1,0-2,0.89-2,2s0.89,2,2,2s2-0.89,2-2S690.94,636.37,689.84,636.37z"/>
			<path class="st2" d="M705.45,636.37c-1.1,0-2,0.89-2,2s0.89,2,2,2s2-0.89,2-2S706.56,636.37,705.45,636.37z"/>
			<path class="st2" d="M721.06,636.37c-1.1,0-2,0.89-2,2s0.89,2,2,2c1.1,0,2-0.89,2-2S722.17,636.37,721.06,636.37z"/>
			<path class="st2" d="M736.67,636.37c-1.1,0-2,0.89-2,2s0.89,2,2,2s2-0.89,2-2S737.78,636.37,736.67,636.37z"/>
			<path class="st2" d="M752.29,636.37c-1.1,0-2,0.89-2,2s0.89,2,2,2c1.1,0,2-0.89,2-2S753.39,636.37,752.29,636.37z"/>
			<path class="st2" d="M767.9,636.37c-1.1,0-2,0.89-2,2s0.89,2,2,2c1.1,0,2-0.89,2-2S769,636.37,767.9,636.37z"/>
			<path class="st2" d="M783.51,636.37c-1.1,0-2,0.89-2,2s0.89,2,2,2s2-0.89,2-2S784.61,636.37,783.51,636.37z"/>
			<path class="st2" d="M799.12,640.37c1.1,0,2-0.89,2-2s-0.89-2-2-2s-2,0.89-2,2S798.02,640.37,799.12,640.37z"/>
			<path class="st2" d="M666.94,654.97c1.1,0,2-0.89,2-2s-0.89-2-2-2c-0.26,0-0.51,0.05-0.74,0.15c-0.32,0.99-0.61,1.99-0.89,3
				C665.68,654.63,666.27,654.97,666.94,654.97z"/>
			<circle class="st2" cx="682.55" cy="652.97" r="2"/>
			<circle class="st2" cx="698.17" cy="652.97" r="2"/>
			<circle class="st2" cx="713.78" cy="652.97" r="2"/>
			<path class="st2" d="M729.39,650.97c-1.1,0-2,0.89-2,2s0.89,2,2,2c1.1,0,2-0.89,2-2S730.49,650.97,729.39,650.97z"/>
			<circle class="st2" cx="745" cy="652.97" r="2"/>
			<circle class="st2" cx="760.61" cy="652.97" r="2"/>
			<circle class="st2" cx="776.22" cy="652.97" r="2"/>
			<circle class="st2" cx="791.83" cy="652.97" r="2"/>
			<circle class="st2" cx="807.44" cy="652.97" r="2"/>
			<path class="st2" d="M674.23,665.58c-1.1,0-2,0.89-2,2s0.89,2,2,2c1.1,0,2-0.89,2-2S675.33,665.58,674.23,665.58z"/>
			<circle class="st2" cx="689.84" cy="667.58" r="2"/>
			<circle class="st2" cx="705.45" cy="667.58" r="2"/>
			<circle class="st2" cx="721.06" cy="667.58" r="2"/>
			<circle class="st2" cx="736.67" cy="667.58" r="2"/>
			<path class="st2" d="M752.29,665.58c-1.1,0-2,0.89-2,2s0.89,2,2,2c1.1,0,2-0.89,2-2S753.39,665.58,752.29,665.58z"/>
			<path class="st2" d="M767.9,665.58c-1.1,0-2,0.89-2,2s0.89,2,2,2c1.1,0,2-0.89,2-2S769,665.58,767.9,665.58z"/>
			<circle class="st2" cx="783.51" cy="667.58" r="2"/>
			<circle class="st2" cx="799.12" cy="667.58" r="2"/>
			<ellipse transform="matrix(0.987 -0.161 0.161 0.987 -96.8398 139.8606)" class="st2" cx="814.73" cy="667.58" rx="2" ry="2"/>
			<circle class="st2" cx="666.94" cy="682.18" r="2"/>
			<circle class="st2" cx="682.55" cy="682.18" r="2"/>
			<circle class="st2" cx="698.17" cy="682.18" r="2"/>
			<circle class="st2" cx="713.78" cy="682.18" r="2"/>
			<path class="st2" d="M729.39,680.18c-1.1,0-2,0.89-2,2c0,1.1,0.89,2,2,2c1.1,0,2-0.89,2-2
				C731.39,681.08,730.49,680.18,729.39,680.18z"/>
			<circle class="st2" cx="745" cy="682.18" r="2"/>
			<circle class="st2" cx="760.61" cy="682.18" r="2"/>
			<circle class="st2" cx="776.22" cy="682.18" r="2"/>
			<circle class="st2" cx="791.83" cy="682.18" r="2"/>
			<circle class="st2" cx="807.44" cy="682.18" r="2"/>
			<path class="st2" d="M674.23,694.79c-1.1,0-2,0.89-2,2c0,1.1,0.89,2,2,2c1.1,0,2-0.89,2-2
				C676.23,695.68,675.33,694.79,674.23,694.79z"/>
			<path class="st2" d="M689.84,694.79c-1.1,0-2,0.89-2,2c0,1.1,0.89,2,2,2s2-0.89,2-2C691.84,695.68,690.94,694.79,689.84,694.79z"
				/>
			<path class="st2" d="M705.45,694.79c-1.1,0-2,0.89-2,2c0,1.1,0.89,2,2,2s2-0.89,2-2C707.45,695.68,706.56,694.79,705.45,694.79z"
				/>
			<path class="st2" d="M721.06,694.79c-1.1,0-2,0.89-2,2c0,1.1,0.89,2,2,2c1.1,0,2-0.89,2-2
				C723.06,695.68,722.17,694.79,721.06,694.79z"/>
			<path class="st2" d="M736.67,694.79c-1.1,0-2,0.89-2,2c0,1.1,0.89,2,2,2s2-0.89,2-2C738.67,695.68,737.78,694.79,736.67,694.79z"
				/>
			<path class="st2" d="M752.29,694.79c-1.1,0-2,0.89-2,2c0,1.1,0.89,2,2,2c1.1,0,2-0.89,2-2
				C754.28,695.68,753.39,694.79,752.29,694.79z"/>
			<path class="st2" d="M767.9,694.79c-1.1,0-2,0.89-2,2c0,1.1,0.89,2,2,2c1.1,0,2-0.89,2-2C769.89,695.68,769,694.79,767.9,694.79z
				"/>
			<path class="st2" d="M783.51,694.79c-1.1,0-2,0.89-2,2c0,1.1,0.89,2,2,2s2-0.89,2-2C785.51,695.68,784.61,694.79,783.51,694.79z"
				/>
			<path class="st2" d="M799.12,698.79c1.1,0,2-0.89,2-2c0-1.1-0.89-2-2-2s-2,0.89-2,2C797.12,697.89,798.02,698.79,799.12,698.79z"
				/>
			<path class="st2" d="M814.73,694.79c-1.1,0-2,0.89-2,2c0,1.1,0.89,2,2,2c0.26,0,0.51-0.05,0.74-0.15c0.32-0.99,0.61-1.99,0.89-3
				C816,695.13,815.4,694.79,814.73,694.79z"/>
			<circle class="st2" cx="682.55" cy="711.39" r="2"/>
			<circle class="st2" cx="698.17" cy="711.39" r="2"/>
			<circle class="st2" cx="713.78" cy="711.39" r="2"/>
			<path class="st2" d="M729.39,709.39c-1.1,0-2,0.89-2,2s0.89,2,2,2c1.1,0,2-0.89,2-2S730.49,709.39,729.39,709.39z"/>
			<circle class="st2" cx="745" cy="711.39" r="2"/>
			<circle class="st2" cx="760.61" cy="711.39" r="2"/>
			<circle class="st2" cx="776.22" cy="711.39" r="2"/>
			<circle class="st2" cx="791.83" cy="711.39" r="2"/>
			<circle class="st2" cx="807.44" cy="711.39" r="2"/>
			<circle class="st2" cx="689.84" cy="726" r="2"/>
			<circle class="st2" cx="705.45" cy="726" r="2"/>
			<circle class="st2" cx="721.06" cy="726" r="2"/>
			<circle class="st2" cx="736.67" cy="726" r="2"/>
			<path class="st2" d="M752.29,724c-1.1,0-2,0.89-2,2c0,1.1,0.89,2,2,2c1.1,0,2-0.89,2-2C754.28,724.89,753.39,724,752.29,724z"/>
			<path class="st2" d="M767.9,724c-1.1,0-2,0.89-2,2c0,1.1,0.89,2,2,2c1.1,0,2-0.89,2-2C769.89,724.89,769,724,767.9,724z"/>
			<circle class="st2" cx="783.51" cy="726" r="2"/>
			<path class="st2" d="M799.12,724c-1.1,0-2,0.89-2,2c0,0.88,0.57,1.62,1.36,1.88c0.83-0.9,1.64-1.82,2.43-2.76
				C800.58,724.46,799.91,724,799.12,724z"/>
			<path class="st2" d="M698.17,738.6c-0.68,0-1.27,0.34-1.63,0.85c1.09,0.75,2.21,1.48,3.34,2.17c0.18-0.3,0.29-0.65,0.29-1.03
				C700.16,739.5,699.27,738.6,698.17,738.6z"/>
			<circle class="st2" cx="713.78" cy="740.6" r="2"/>
			<path class="st2" d="M729.39,738.6c-1.1,0-2,0.89-2,2s0.89,2,2,2c1.1,0,2-0.89,2-2S730.49,738.6,729.39,738.6z"/>
			<circle class="st2" cx="745" cy="740.6" r="2"/>
			<circle class="st2" cx="760.61" cy="740.6" r="2"/>
			<circle class="st2" cx="776.22" cy="740.6" r="2"/>
		</g>
	</g>
	<g>
		<g>
			<path class="st2" d="M23.95,227.88c-0.75,0-1.35,0.61-1.35,1.35c0,0.75,0.61,1.35,1.35,1.35s1.35-0.61,1.35-1.35
				C25.31,228.49,24.7,227.88,23.95,227.88z"/>
			<path class="st2" d="M34.54,227.88c-0.75,0-1.35,0.61-1.35,1.35c0,0.75,0.61,1.35,1.35,1.35s1.35-0.61,1.35-1.35
				C35.89,228.49,35.28,227.88,34.54,227.88z"/>
			<path class="st2" d="M45.12,227.88c-0.75,0-1.35,0.61-1.35,1.35c0,0.75,0.61,1.35,1.35,1.35s1.35-0.61,1.35-1.35
				C46.47,228.49,45.87,227.88,45.12,227.88z"/>
			<path class="st2" d="M55.7,227.88c-0.75,0-1.35,0.61-1.35,1.35c0,0.75,0.61,1.35,1.35,1.35s1.35-0.61,1.35-1.35
				C57.05,228.49,56.45,227.88,55.7,227.88z"/>
			<path class="st2" d="M66.28,227.88c-0.75,0-1.35,0.61-1.35,1.35c0,0.75,0.61,1.35,1.35,1.35c0.75,0,1.35-0.61,1.35-1.35
				C67.64,228.49,67.03,227.88,66.28,227.88z"/>
			<path class="st2" d="M76.86,230.59c0.46,0,0.86-0.23,1.11-0.58c-0.74-0.51-1.5-1-2.26-1.47c-0.12,0.2-0.2,0.44-0.2,0.7
				C75.51,229.98,76.11,230.59,76.86,230.59z"/>
			<path class="st2" d="M8.43,240.49c0.75,0,1.35-0.61,1.35-1.35c0-0.6-0.39-1.1-0.92-1.28c-0.56,0.61-1.11,1.24-1.64,1.87
				C7.45,240.18,7.9,240.49,8.43,240.49z"/>
			<path class="st2" d="M19.02,237.78c-0.75,0-1.35,0.61-1.35,1.35c0,0.75,0.61,1.35,1.35,1.35c0.75,0,1.35-0.61,1.35-1.35
				C20.37,238.39,19.76,237.78,19.02,237.78z"/>
			<path class="st2" d="M29.6,237.78c-0.75,0-1.35,0.61-1.35,1.35c0,0.75,0.61,1.35,1.35,1.35c0.75,0,1.35-0.61,1.35-1.35
				C30.95,238.39,30.35,237.78,29.6,237.78z"/>
			<path class="st2" d="M40.18,237.78c-0.75,0-1.35,0.61-1.35,1.35c0,0.75,0.61,1.35,1.35,1.35c0.75,0,1.35-0.61,1.35-1.35
				C41.53,238.39,40.93,237.78,40.18,237.78z"/>
			<path class="st2" d="M50.76,237.78c-0.75,0-1.35,0.61-1.35,1.35c0,0.75,0.61,1.35,1.35,1.35c0.75,0,1.35-0.61,1.35-1.35
				C52.12,238.39,51.51,237.78,50.76,237.78z"/>
			<path class="st2" d="M61.34,237.78c-0.75,0-1.35,0.61-1.35,1.35c0,0.75,0.61,1.35,1.35,1.35s1.35-0.61,1.35-1.35
				C62.7,238.39,62.09,237.78,61.34,237.78z"/>
			<path class="st2" d="M71.92,237.78c-0.75,0-1.35,0.61-1.35,1.35c0,0.75,0.61,1.35,1.35,1.35s1.35-0.61,1.35-1.35
				C73.28,238.39,72.67,237.78,71.92,237.78z"/>
			<path class="st2" d="M82.51,237.78c-0.75,0-1.35,0.61-1.35,1.35c0,0.75,0.61,1.35,1.35,1.35s1.35-0.61,1.35-1.35
				C83.86,238.39,83.25,237.78,82.51,237.78z"/>
			<path class="st2" d="M2.79,247.68c-0.75,0-1.35,0.61-1.35,1.35c0,0.75,0.61,1.35,1.35,1.35s1.35-0.61,1.35-1.35
				C4.15,248.29,3.54,247.68,2.79,247.68z"/>
			<path class="st2" d="M13.37,247.68c-0.75,0-1.35,0.61-1.35,1.35c0,0.75,0.61,1.35,1.35,1.35c0.75,0,1.35-0.61,1.35-1.35
				C14.73,248.29,14.12,247.68,13.37,247.68z"/>
			<path class="st2" d="M23.95,247.68c-0.75,0-1.35,0.61-1.35,1.35c0,0.75,0.61,1.35,1.35,1.35s1.35-0.61,1.35-1.35
				C25.31,248.29,24.7,247.68,23.95,247.68z"/>
			<path class="st2" d="M34.54,247.68c-0.75,0-1.35,0.61-1.35,1.35c0,0.75,0.61,1.35,1.35,1.35s1.35-0.61,1.35-1.35
				C35.89,248.29,35.28,247.68,34.54,247.68z"/>
			<path class="st2" d="M45.12,247.68c-0.75,0-1.35,0.61-1.35,1.35c0,0.75,0.61,1.35,1.35,1.35s1.35-0.61,1.35-1.35
				C46.47,248.29,45.87,247.68,45.12,247.68z"/>
			<path class="st2" d="M55.7,247.68c-0.75,0-1.35,0.61-1.35,1.35c0,0.75,0.61,1.35,1.35,1.35s1.35-0.61,1.35-1.35
				C57.05,248.29,56.45,247.68,55.7,247.68z"/>
			<path class="st2" d="M66.28,247.68c-0.75,0-1.35,0.61-1.35,1.35c0,0.75,0.61,1.35,1.35,1.35c0.75,0,1.35-0.61,1.35-1.35
				C67.64,248.29,67.03,247.68,66.28,247.68z"/>
			<path class="st2" d="M76.86,247.68c-0.75,0-1.35,0.61-1.35,1.35c0,0.75,0.61,1.35,1.35,1.35c0.75,0,1.35-0.61,1.35-1.35
				C78.22,248.29,77.61,247.68,76.86,247.68z"/>
			<path class="st2" d="M87.44,250.39c0.75,0,1.35-0.61,1.35-1.35c0-0.75-0.61-1.35-1.35-1.35c-0.75,0-1.35,0.61-1.35,1.35
				C86.09,249.78,86.7,250.39,87.44,250.39z"/>
			<path class="st2" d="M-2.15,260.29c0.75,0,1.35-0.61,1.35-1.35s-0.61-1.35-1.35-1.35c-0.18,0-0.35,0.04-0.5,0.1
				c-0.21,0.67-0.41,1.35-0.6,2.03C-3.01,260.06-2.6,260.29-2.15,260.29z"/>
			<path class="st2" d="M8.43,257.58c-0.75,0-1.35,0.61-1.35,1.35s0.61,1.35,1.35,1.35s1.35-0.61,1.35-1.35S9.18,257.58,8.43,257.58
				z"/>
			<path class="st2" d="M19.02,257.58c-0.75,0-1.35,0.61-1.35,1.35s0.61,1.35,1.35,1.35c0.75,0,1.35-0.61,1.35-1.35
				S19.76,257.58,19.02,257.58z"/>
			<path class="st2" d="M29.6,257.58c-0.75,0-1.35,0.61-1.35,1.35s0.61,1.35,1.35,1.35c0.75,0,1.35-0.61,1.35-1.35
				S30.35,257.58,29.6,257.58z"/>
			<path class="st2" d="M40.18,257.58c-0.75,0-1.35,0.61-1.35,1.35s0.61,1.35,1.35,1.35c0.75,0,1.35-0.61,1.35-1.35
				S40.93,257.58,40.18,257.58z"/>
			<path class="st2" d="M50.76,257.58c-0.75,0-1.35,0.61-1.35,1.35s0.61,1.35,1.35,1.35c0.75,0,1.35-0.61,1.35-1.35
				S51.51,257.58,50.76,257.58z"/>
			<path class="st2" d="M61.34,257.58c-0.75,0-1.35,0.61-1.35,1.35s0.61,1.35,1.35,1.35s1.35-0.61,1.35-1.35
				S62.09,257.58,61.34,257.58z"/>
			<path class="st2" d="M71.92,257.58c-0.75,0-1.35,0.61-1.35,1.35s0.61,1.35,1.35,1.35s1.35-0.61,1.35-1.35
				S72.67,257.58,71.92,257.58z"/>
			<path class="st2" d="M82.51,257.58c-0.75,0-1.35,0.61-1.35,1.35s0.61,1.35,1.35,1.35s1.35-0.61,1.35-1.35
				S83.25,257.58,82.51,257.58z"/>
			<path class="st2" d="M93.09,260.29c0.75,0,1.35-0.61,1.35-1.35s-0.61-1.35-1.35-1.35c-0.75,0-1.35,0.61-1.35,1.35
				S92.34,260.29,93.09,260.29z"/>
			<circle class="st2" cx="2.79" cy="268.83" r="1.35"/>
			<circle class="st2" cx="13.37" cy="268.83" r="1.35"/>
			<circle class="st2" cx="23.95" cy="268.83" r="1.35"/>
			<circle class="st2" cx="34.54" cy="268.83" r="1.35"/>
			<circle class="st2" cx="45.12" cy="268.83" r="1.35"/>
			<path class="st2" d="M55.7,267.48c-0.75,0-1.35,0.61-1.35,1.35s0.61,1.35,1.35,1.35s1.35-0.61,1.35-1.35
				S56.45,267.48,55.7,267.48z"/>
			<path class="st2" d="M66.28,267.48c-0.75,0-1.35,0.61-1.35,1.35s0.61,1.35,1.35,1.35c0.75,0,1.35-0.61,1.35-1.35
				S67.03,267.48,66.28,267.48z"/>
			<path class="st2" d="M76.86,267.48c-0.75,0-1.35,0.61-1.35,1.35s0.61,1.35,1.35,1.35c0.75,0,1.35-0.61,1.35-1.35
				S77.61,267.48,76.86,267.48z"/>
			
				<ellipse transform="matrix(0.9975 -0.0709 0.0709 0.9975 -18.8375 6.8752)" class="st2" cx="87.44" cy="268.83" rx="1.35" ry="1.35"/>
			
				<ellipse transform="matrix(0.0985 -0.9951 0.9951 0.0985 -179.1598 339.8933)" class="st2" cx="98.03" cy="268.83" rx="1.35" ry="1.35"/>
			<circle class="st2" cx="-2.15" cy="278.73" r="1.35"/>
			<circle class="st2" cx="8.43" cy="278.73" r="1.35"/>
			<path class="st2" d="M19.02,277.38c-0.75,0-1.35,0.61-1.35,1.35s0.61,1.35,1.35,1.35c0.75,0,1.35-0.61,1.35-1.35
				S19.76,277.38,19.02,277.38z"/>
			<circle class="st2" cx="29.6" cy="278.73" r="1.35"/>
			<circle class="st2" cx="40.18" cy="278.73" r="1.35"/>
			<circle class="st2" cx="50.76" cy="278.73" r="1.35"/>
			<circle class="st2" cx="61.34" cy="278.73" r="1.35"/>
			<circle class="st2" cx="71.92" cy="278.73" r="1.35"/>
			<circle class="st2" cx="82.51" cy="278.73" r="1.35"/>
			
				<ellipse transform="matrix(0.9995 -0.0312 0.0312 0.9995 -8.6524 3.0405)" class="st2" cx="93.09" cy="278.73" rx="1.35" ry="1.35"/>
			<circle class="st2" cx="2.79" cy="288.63" r="1.35"/>
			<circle class="st2" cx="13.37" cy="288.63" r="1.35"/>
			<circle class="st2" cx="23.95" cy="288.63" r="1.35"/>
			<circle class="st2" cx="34.54" cy="288.63" r="1.35"/>
			<circle class="st2" cx="45.12" cy="288.63" r="1.35"/>
			<path class="st2" d="M55.7,287.28c-0.75,0-1.35,0.61-1.35,1.35s0.61,1.35,1.35,1.35s1.35-0.61,1.35-1.35
				S56.45,287.28,55.7,287.28z"/>
			<path class="st2" d="M66.28,287.28c-0.75,0-1.35,0.61-1.35,1.35s0.61,1.35,1.35,1.35c0.75,0,1.35-0.61,1.35-1.35
				S67.03,287.28,66.28,287.28z"/>
			<path class="st2" d="M76.86,287.28c-0.75,0-1.35,0.61-1.35,1.35s0.61,1.35,1.35,1.35c0.75,0,1.35-0.61,1.35-1.35
				S77.61,287.28,76.86,287.28z"/>
			
				<ellipse transform="matrix(0.9975 -0.0709 0.0709 0.9975 -20.2411 6.925)" class="st2" cx="87.44" cy="288.63" rx="1.35" ry="1.35"/>
			<path class="st2" d="M98.03,287.28c-0.75,0-1.35,0.61-1.35,1.35s0.61,1.35,1.35,1.35c0.18,0,0.35-0.04,0.5-0.1
				c0.21-0.67,0.41-1.35,0.6-2.03C98.89,287.51,98.48,287.28,98.03,287.28z"/>
			<circle class="st2" cx="8.43" cy="298.53" r="1.35"/>
			<path class="st2" d="M19.02,297.18c-0.75,0-1.35,0.61-1.35,1.35s0.61,1.35,1.35,1.35c0.75,0,1.35-0.61,1.35-1.35
				S19.76,297.18,19.02,297.18z"/>
			<circle class="st2" cx="29.6" cy="298.53" r="1.35"/>
			<circle class="st2" cx="40.18" cy="298.53" r="1.35"/>
			<circle class="st2" cx="50.76" cy="298.53" r="1.35"/>
			<circle class="st2" cx="61.34" cy="298.53" r="1.35"/>
			<circle class="st2" cx="71.92" cy="298.53" r="1.35"/>
			<circle class="st2" cx="82.51" cy="298.53" r="1.35"/>
			
				<ellipse transform="matrix(0.9995 -0.0312 0.0312 0.9995 -9.2703 3.0501)" class="st2" cx="93.09" cy="298.53" rx="1.35" ry="1.35"/>
			<circle class="st2" cx="13.37" cy="308.43" r="1.35"/>
			<circle class="st2" cx="23.95" cy="308.43" r="1.35"/>
			<circle class="st2" cx="34.54" cy="308.43" r="1.35"/>
			<circle class="st2" cx="45.12" cy="308.43" r="1.35"/>
			<path class="st2" d="M55.7,307.08c-0.75,0-1.35,0.61-1.35,1.35s0.61,1.35,1.35,1.35s1.35-0.61,1.35-1.35
				S56.45,307.08,55.7,307.08z"/>
			<path class="st2" d="M66.28,307.08c-0.75,0-1.35,0.61-1.35,1.35s0.61,1.35,1.35,1.35c0.75,0,1.35-0.61,1.35-1.35
				S67.03,307.08,66.28,307.08z"/>
			<path class="st2" d="M76.86,307.08c-0.75,0-1.35,0.61-1.35,1.35s0.61,1.35,1.35,1.35c0.75,0,1.35-0.61,1.35-1.35
				S77.61,307.08,76.86,307.08z"/>
			<path class="st2" d="M87.44,307.08c-0.75,0-1.35,0.61-1.35,1.35c0,0.6,0.39,1.1,0.92,1.28c0.56-0.61,1.11-1.24,1.64-1.87
				C88.43,307.39,87.98,307.08,87.44,307.08z"/>
			<path class="st2" d="M19.02,316.98c-0.46,0-0.86,0.23-1.11,0.58c0.74,0.51,1.5,1,2.26,1.47c0.12-0.2,0.2-0.44,0.2-0.7
				C20.37,317.59,19.76,316.98,19.02,316.98z"/>
			<circle class="st2" cx="29.6" cy="318.33" r="1.35"/>
			<circle class="st2" cx="40.18" cy="318.33" r="1.35"/>
			<circle class="st2" cx="50.76" cy="318.33" r="1.35"/>
			<circle class="st2" cx="61.34" cy="318.33" r="1.35"/>
			<circle class="st2" cx="71.92" cy="318.33" r="1.35"/>
		</g>
	</g>
	<g>
		<g>
			<path class="st2" d="M25,442.14c-0.9,0-1.63,0.73-1.63,1.63c0,0.9,0.73,1.63,1.63,1.63c0.9,0,1.63-0.73,1.63-1.63
				C26.64,442.87,25.91,442.14,25,442.14z"/>
			<path class="st2" d="M37.78,442.14c-0.9,0-1.63,0.73-1.63,1.63c0,0.9,0.73,1.63,1.63,1.63c0.9,0,1.63-0.73,1.63-1.63
				C39.41,442.87,38.68,442.14,37.78,442.14z"/>
			<path class="st2" d="M50.55,442.14c-0.9,0-1.63,0.73-1.63,1.63c0,0.9,0.73,1.63,1.63,1.63c0.9,0,1.63-0.73,1.63-1.63
				C52.19,442.87,51.45,442.14,50.55,442.14z"/>
			<path class="st2" d="M63.32,442.14c-0.9,0-1.63,0.73-1.63,1.63c0,0.9,0.73,1.63,1.63,1.63c0.9,0,1.63-0.73,1.63-1.63
				C64.96,442.87,64.23,442.14,63.32,442.14z"/>
			<path class="st2" d="M76.1,442.14c-0.9,0-1.63,0.73-1.63,1.63c0,0.9,0.73,1.63,1.63,1.63c0.9,0,1.63-0.73,1.63-1.63
				C77.73,442.87,77,442.14,76.1,442.14z"/>
			<path class="st2" d="M88.87,445.41c0.55,0,1.04-0.28,1.34-0.7c-0.89-0.61-1.8-1.21-2.73-1.78c-0.15,0.25-0.24,0.53-0.24,0.84
				C87.24,444.68,87.97,445.41,88.87,445.41z"/>
			<path class="st2" d="M6.27,457.36c0.9,0,1.63-0.73,1.63-1.63c0-0.72-0.47-1.32-1.11-1.54c-0.68,0.74-1.34,1.49-1.98,2.26
				C5.07,456.99,5.63,457.36,6.27,457.36z"/>
			<path class="st2" d="M19.04,454.09c-0.9,0-1.63,0.73-1.63,1.63c0,0.9,0.73,1.63,1.63,1.63c0.9,0,1.63-0.73,1.63-1.63
				C20.68,454.82,19.94,454.09,19.04,454.09z"/>
			<path class="st2" d="M31.82,454.09c-0.9,0-1.63,0.73-1.63,1.63c0,0.9,0.73,1.63,1.63,1.63c0.9,0,1.63-0.73,1.63-1.63
				C33.45,454.82,32.72,454.09,31.82,454.09z"/>
			<path class="st2" d="M44.59,454.09c-0.9,0-1.63,0.73-1.63,1.63c0,0.9,0.73,1.63,1.63,1.63c0.9,0,1.63-0.73,1.63-1.63
				C46.22,454.82,45.49,454.09,44.59,454.09z"/>
			<path class="st2" d="M57.36,454.09c-0.9,0-1.63,0.73-1.63,1.63c0,0.9,0.73,1.63,1.63,1.63c0.9,0,1.63-0.73,1.63-1.63
				C59,454.82,58.27,454.09,57.36,454.09z"/>
			<path class="st2" d="M70.14,454.09c-0.9,0-1.63,0.73-1.63,1.63c0,0.9,0.73,1.63,1.63,1.63c0.9,0,1.63-0.73,1.63-1.63
				C71.77,454.82,71.04,454.09,70.14,454.09z"/>
			<path class="st2" d="M82.91,454.09c-0.9,0-1.63,0.73-1.63,1.63c0,0.9,0.73,1.63,1.63,1.63c0.9,0,1.63-0.73,1.63-1.63
				C84.54,454.82,83.81,454.09,82.91,454.09z"/>
			<path class="st2" d="M95.68,454.09c-0.9,0-1.63,0.73-1.63,1.63c0,0.9,0.73,1.63,1.63,1.63c0.9,0,1.63-0.73,1.63-1.63
				C97.32,454.82,96.59,454.09,95.68,454.09z"/>
			<circle class="st2" cx="-0.54" cy="467.68" r="1.63"/>
			<circle class="st2" cx="12.23" cy="467.68" r="1.63"/>
			<path class="st2" d="M25,466.04c-0.9,0-1.63,0.73-1.63,1.63c0,0.9,0.73,1.63,1.63,1.63c0.9,0,1.63-0.73,1.63-1.63
				C26.64,466.77,25.91,466.04,25,466.04z"/>
			<circle class="st2" cx="37.78" cy="467.68" r="1.63"/>
			<path class="st2" d="M50.55,466.04c-0.9,0-1.63,0.73-1.63,1.63c0,0.9,0.73,1.63,1.63,1.63c0.9,0,1.63-0.73,1.63-1.63
				C52.19,466.77,51.45,466.04,50.55,466.04z"/>
			<path class="st2" d="M63.32,466.04c-0.9,0-1.63,0.73-1.63,1.63c0,0.9,0.73,1.63,1.63,1.63c0.9,0,1.63-0.73,1.63-1.63
				C64.96,466.77,64.23,466.04,63.32,466.04z"/>
			<path class="st2" d="M76.1,466.04c-0.9,0-1.63,0.73-1.63,1.63c0,0.9,0.73,1.63,1.63,1.63c0.9,0,1.63-0.73,1.63-1.63
				C77.73,466.77,77,466.04,76.1,466.04z"/>
			
				<ellipse transform="matrix(0.0709 -0.9975 0.9975 0.0709 -383.929 523.1707)" class="st2" cx="88.87" cy="467.68" rx="1.63" ry="1.63"/>
			
				<ellipse transform="matrix(0.9975 -0.0709 0.0709 0.9975 -32.8977 8.3821)" class="st2" cx="101.64" cy="467.68" rx="1.63" ry="1.63"/>
			<path class="st2" d="M-6.51,481.26c0.9,0,1.63-0.73,1.63-1.63c0-0.9-0.73-1.63-1.63-1.63c-0.21,0-0.42,0.04-0.61,0.12
				c-0.26,0.81-0.5,1.63-0.73,2.46C-7.54,480.99-7.06,481.26-6.51,481.26z"/>
			<circle class="st2" cx="6.27" cy="479.63" r="1.63"/>
			<path class="st2" d="M19.04,477.99c-0.9,0-1.63,0.73-1.63,1.63c0,0.9,0.73,1.63,1.63,1.63c0.9,0,1.63-0.73,1.63-1.63
				C20.68,478.72,19.94,477.99,19.04,477.99z"/>
			<path class="st2" d="M31.82,477.99c-0.9,0-1.63,0.73-1.63,1.63c0,0.9,0.73,1.63,1.63,1.63c0.9,0,1.63-0.73,1.63-1.63
				C33.45,478.72,32.72,477.99,31.82,477.99z"/>
			<path class="st2" d="M44.59,477.99c-0.9,0-1.63,0.73-1.63,1.63c0,0.9,0.73,1.63,1.63,1.63c0.9,0,1.63-0.73,1.63-1.63
				C46.22,478.72,45.49,477.99,44.59,477.99z"/>
			<path class="st2" d="M57.36,477.99c-0.9,0-1.63,0.73-1.63,1.63c0,0.9,0.73,1.63,1.63,1.63c0.9,0,1.63-0.73,1.63-1.63
				C59,478.72,58.27,477.99,57.36,477.99z"/>
			<path class="st2" d="M70.14,477.99c-0.9,0-1.63,0.73-1.63,1.63c0,0.9,0.73,1.63,1.63,1.63c0.9,0,1.63-0.73,1.63-1.63
				C71.77,478.72,71.04,477.99,70.14,477.99z"/>
			<path class="st2" d="M82.91,477.99c-0.9,0-1.63,0.73-1.63,1.63c0,0.9,0.73,1.63,1.63,1.63c0.9,0,1.63-0.73,1.63-1.63
				C84.54,478.72,83.81,477.99,82.91,477.99z"/>
			
				<ellipse transform="matrix(0.999 -0.0453 0.0453 0.999 -21.6359 4.8285)" class="st2" cx="95.68" cy="479.63" rx="1.63" ry="1.63"/>
			<circle class="st2" cx="108.46" cy="479.63" r="1.63"/>
			<path class="st2" d="M-0.54,489.94c-0.9,0-1.63,0.73-1.63,1.63c0,0.9,0.73,1.63,1.63,1.63s1.63-0.73,1.63-1.63
				C1.09,490.67,0.36,489.94-0.54,489.94z"/>
			<path class="st2" d="M12.23,489.94c-0.9,0-1.63,0.73-1.63,1.63c0,0.9,0.73,1.63,1.63,1.63c0.9,0,1.63-0.73,1.63-1.63
				C13.86,490.67,13.13,489.94,12.23,489.94z"/>
			<path class="st2" d="M25,489.94c-0.9,0-1.63,0.73-1.63,1.63c0,0.9,0.73,1.63,1.63,1.63c0.9,0,1.63-0.73,1.63-1.63
				C26.64,490.67,25.91,489.94,25,489.94z"/>
			<path class="st2" d="M37.78,489.94c-0.9,0-1.63,0.73-1.63,1.63c0,0.9,0.73,1.63,1.63,1.63c0.9,0,1.63-0.73,1.63-1.63
				C39.41,490.67,38.68,489.94,37.78,489.94z"/>
			<path class="st2" d="M50.55,489.94c-0.9,0-1.63,0.73-1.63,1.63c0,0.9,0.73,1.63,1.63,1.63c0.9,0,1.63-0.73,1.63-1.63
				C52.19,490.67,51.45,489.94,50.55,489.94z"/>
			<path class="st2" d="M63.32,489.94c-0.9,0-1.63,0.73-1.63,1.63c0,0.9,0.73,1.63,1.63,1.63c0.9,0,1.63-0.73,1.63-1.63
				C64.96,490.67,64.23,489.94,63.32,489.94z"/>
			<path class="st2" d="M76.1,489.94c-0.9,0-1.63,0.73-1.63,1.63c0,0.9,0.73,1.63,1.63,1.63c0.9,0,1.63-0.73,1.63-1.63
				C77.73,490.67,77,489.94,76.1,489.94z"/>
			<path class="st2" d="M88.87,489.94c-0.9,0-1.63,0.73-1.63,1.63c0,0.9,0.73,1.63,1.63,1.63c0.9,0,1.63-0.73,1.63-1.63
				C90.51,490.67,89.77,489.94,88.87,489.94z"/>
			<path class="st2" d="M101.64,493.21c0.9,0,1.63-0.73,1.63-1.63c0-0.9-0.73-1.63-1.63-1.63c-0.9,0-1.63,0.73-1.63,1.63
				C100.01,492.48,100.74,493.21,101.64,493.21z"/>
			<path class="st2" d="M114.42,493.21c0.9,0,1.63-0.73,1.63-1.63c0-0.9-0.73-1.63-1.63-1.63c-0.9,0-1.63,0.73-1.63,1.63
				C112.78,492.48,113.52,493.21,114.42,493.21z"/>
			<circle class="st2" cx="-6.51" cy="503.53" r="1.63"/>
			<circle class="st2" cx="6.27" cy="503.53" r="1.63"/>
			<path class="st2" d="M19.04,501.89c-0.9,0-1.63,0.73-1.63,1.63c0,0.9,0.73,1.63,1.63,1.63c0.9,0,1.63-0.73,1.63-1.63
				C20.68,502.62,19.94,501.89,19.04,501.89z"/>
			<path class="st2" d="M31.82,501.89c-0.9,0-1.63,0.73-1.63,1.63c0,0.9,0.73,1.63,1.63,1.63c0.9,0,1.63-0.73,1.63-1.63
				C33.45,502.62,32.72,501.89,31.82,501.89z"/>
			<path class="st2" d="M44.59,501.89c-0.9,0-1.63,0.73-1.63,1.63c0,0.9,0.73,1.63,1.63,1.63c0.9,0,1.63-0.73,1.63-1.63
				C46.22,502.62,45.49,501.89,44.59,501.89z"/>
			<path class="st2" d="M57.36,501.89c-0.9,0-1.63,0.73-1.63,1.63c0,0.9,0.73,1.63,1.63,1.63c0.9,0,1.63-0.73,1.63-1.63
				C59,502.62,58.27,501.89,57.36,501.89z"/>
			<path class="st2" d="M70.14,501.89c-0.9,0-1.63,0.73-1.63,1.63c0,0.9,0.73,1.63,1.63,1.63c0.9,0,1.63-0.73,1.63-1.63
				C71.77,502.62,71.04,501.89,70.14,501.89z"/>
			<path class="st2" d="M82.91,501.89c-0.9,0-1.63,0.73-1.63,1.63c0,0.9,0.73,1.63,1.63,1.63c0.9,0,1.63-0.73,1.63-1.63
				C84.54,502.62,83.81,501.89,82.91,501.89z"/>
			
				<ellipse transform="matrix(0.999 -0.0453 0.0453 0.999 -22.7189 4.8531)" class="st2" cx="95.68" cy="503.53" rx="1.63" ry="1.63"/>
			<circle class="st2" cx="108.46" cy="503.53" r="1.63"/>
			<circle class="st2" cx="-0.54" cy="515.48" r="1.63"/>
			<circle class="st2" cx="12.23" cy="515.48" r="1.63"/>
			<path class="st2" d="M25,513.84c-0.9,0-1.63,0.73-1.63,1.63c0,0.9,0.73,1.63,1.63,1.63c0.9,0,1.63-0.73,1.63-1.63
				C26.64,514.57,25.91,513.84,25,513.84z"/>
			<circle class="st2" cx="37.78" cy="515.48" r="1.63"/>
			<path class="st2" d="M50.55,513.84c-0.9,0-1.63,0.73-1.63,1.63c0,0.9,0.73,1.63,1.63,1.63c0.9,0,1.63-0.73,1.63-1.63
				C52.19,514.57,51.45,513.84,50.55,513.84z"/>
			<path class="st2" d="M63.32,513.84c-0.9,0-1.63,0.73-1.63,1.63c0,0.9,0.73,1.63,1.63,1.63c0.9,0,1.63-0.73,1.63-1.63
				C64.96,514.57,64.23,513.84,63.32,513.84z"/>
			<path class="st2" d="M76.1,513.84c-0.9,0-1.63,0.73-1.63,1.63c0,0.9,0.73,1.63,1.63,1.63c0.9,0,1.63-0.73,1.63-1.63
				C77.73,514.57,77,513.84,76.1,513.84z"/>
			
				<ellipse transform="matrix(0.0709 -0.9975 0.9975 0.0709 -431.6098 567.5831)" class="st2" cx="88.87" cy="515.48" rx="1.63" ry="1.63"/>
			
				<ellipse transform="matrix(0.9975 -0.0709 0.0709 0.9975 -36.2863 8.5024)" class="st2" cx="101.64" cy="515.48" rx="1.63" ry="1.63"/>
			<path class="st2" d="M114.42,513.84c-0.9,0-1.63,0.73-1.63,1.63c0,0.9,0.73,1.63,1.63,1.63c0.22,0,0.42-0.04,0.61-0.12
				c0.26-0.81,0.5-1.63,0.73-2.46C115.46,514.12,114.97,513.84,114.42,513.84z"/>
			<path class="st2" d="M6.27,525.79c-0.9,0-1.63,0.73-1.63,1.63c0,0.9,0.73,1.63,1.63,1.63c0.9,0,1.63-0.73,1.63-1.63
				C7.9,526.53,7.17,525.79,6.27,525.79z"/>
			<path class="st2" d="M19.04,525.79c-0.9,0-1.63,0.73-1.63,1.63c0,0.9,0.73,1.63,1.63,1.63c0.9,0,1.63-0.73,1.63-1.63
				C20.68,526.53,19.94,525.79,19.04,525.79z"/>
			<path class="st2" d="M31.82,525.79c-0.9,0-1.63,0.73-1.63,1.63c0,0.9,0.73,1.63,1.63,1.63c0.9,0,1.63-0.73,1.63-1.63
				C33.45,526.53,32.72,525.79,31.82,525.79z"/>
			<path class="st2" d="M44.59,525.79c-0.9,0-1.63,0.73-1.63,1.63c0,0.9,0.73,1.63,1.63,1.63c0.9,0,1.63-0.73,1.63-1.63
				C46.22,526.53,45.49,525.79,44.59,525.79z"/>
			<path class="st2" d="M57.36,525.79c-0.9,0-1.63,0.73-1.63,1.63c0,0.9,0.73,1.63,1.63,1.63c0.9,0,1.63-0.73,1.63-1.63
				C59,526.53,58.27,525.79,57.36,525.79z"/>
			<path class="st2" d="M70.14,525.79c-0.9,0-1.63,0.73-1.63,1.63c0,0.9,0.73,1.63,1.63,1.63c0.9,0,1.63-0.73,1.63-1.63
				C71.77,526.53,71.04,525.79,70.14,525.79z"/>
			<path class="st2" d="M82.91,525.79c-0.9,0-1.63,0.73-1.63,1.63c0,0.9,0.73,1.63,1.63,1.63c0.9,0,1.63-0.73,1.63-1.63
				C84.54,526.53,83.81,525.79,82.91,525.79z"/>
			<path class="st2" d="M95.68,525.79c-0.9,0-1.63,0.73-1.63,1.63c0,0.9,0.73,1.63,1.63,1.63c0.9,0,1.63-0.73,1.63-1.63
				C97.32,526.53,96.59,525.79,95.68,525.79z"/>
			<path class="st2" d="M108.46,529.06c0.9,0,1.63-0.73,1.63-1.63c0-0.9-0.73-1.63-1.63-1.63c-0.9,0-1.63,0.73-1.63,1.63
				C106.82,528.33,107.55,529.06,108.46,529.06z"/>
			<path class="st2" d="M12.23,537.74c-0.9,0-1.63,0.73-1.63,1.63c0,0.9,0.73,1.63,1.63,1.63c0.9,0,1.63-0.73,1.63-1.63
				C13.86,538.48,13.13,537.74,12.23,537.74z"/>
			<path class="st2" d="M25,537.74c-0.9,0-1.63,0.73-1.63,1.63c0,0.9,0.73,1.63,1.63,1.63c0.9,0,1.63-0.73,1.63-1.63
				C26.64,538.48,25.91,537.74,25,537.74z"/>
			<path class="st2" d="M37.78,537.74c-0.9,0-1.63,0.73-1.63,1.63c0,0.9,0.73,1.63,1.63,1.63c0.9,0,1.63-0.73,1.63-1.63
				C39.41,538.48,38.68,537.74,37.78,537.74z"/>
			<path class="st2" d="M50.55,537.74c-0.9,0-1.63,0.73-1.63,1.63c0,0.9,0.73,1.63,1.63,1.63c0.9,0,1.63-0.73,1.63-1.63
				C52.19,538.48,51.45,537.74,50.55,537.74z"/>
			<path class="st2" d="M63.32,537.74c-0.9,0-1.63,0.73-1.63,1.63c0,0.9,0.73,1.63,1.63,1.63c0.9,0,1.63-0.73,1.63-1.63
				C64.96,538.48,64.23,537.74,63.32,537.74z"/>
			<path class="st2" d="M76.1,537.74c-0.9,0-1.63,0.73-1.63,1.63c0,0.9,0.73,1.63,1.63,1.63c0.9,0,1.63-0.73,1.63-1.63
				C77.73,538.48,77,537.74,76.1,537.74z"/>
			<path class="st2" d="M88.87,537.74c-0.9,0-1.63,0.73-1.63,1.63c0,0.9,0.73,1.63,1.63,1.63c0.9,0,1.63-0.73,1.63-1.63
				C90.51,538.48,89.77,537.74,88.87,537.74z"/>
			<path class="st2" d="M101.64,537.74c-0.9,0-1.63,0.73-1.63,1.63c0,0.72,0.47,1.32,1.11,1.54c0.68-0.74,1.34-1.49,1.98-2.26
				C102.84,538.12,102.29,537.74,101.64,537.74z"/>
			<path class="st2" d="M19.04,549.69c-0.55,0-1.04,0.28-1.34,0.7c0.89,0.61,1.8,1.21,2.73,1.78c0.15-0.25,0.24-0.53,0.24-0.84
				C20.68,550.43,19.94,549.69,19.04,549.69z"/>
			<path class="st2" d="M31.82,549.69c-0.9,0-1.63,0.73-1.63,1.63c0,0.9,0.73,1.63,1.63,1.63c0.9,0,1.63-0.73,1.63-1.63
				C33.45,550.43,32.72,549.69,31.82,549.69z"/>
			<path class="st2" d="M44.59,549.69c-0.9,0-1.63,0.73-1.63,1.63c0,0.9,0.73,1.63,1.63,1.63c0.9,0,1.63-0.73,1.63-1.63
				C46.22,550.43,45.49,549.69,44.59,549.69z"/>
			<path class="st2" d="M57.36,549.69c-0.9,0-1.63,0.73-1.63,1.63c0,0.9,0.73,1.63,1.63,1.63c0.9,0,1.63-0.73,1.63-1.63
				C59,550.43,58.27,549.69,57.36,549.69z"/>
			<path class="st2" d="M70.14,549.69c-0.9,0-1.63,0.73-1.63,1.63c0,0.9,0.73,1.63,1.63,1.63c0.9,0,1.63-0.73,1.63-1.63
				C71.77,550.43,71.04,549.69,70.14,549.69z"/>
			<path class="st2" d="M82.91,549.69c-0.9,0-1.63,0.73-1.63,1.63c0,0.9,0.73,1.63,1.63,1.63c0.9,0,1.63-0.73,1.63-1.63
				C84.54,550.43,83.81,549.69,82.91,549.69z"/>
		</g>
	</g>
	<g>
		<linearGradient id="SVGID_3_" gradientUnits="userSpaceOnUse" x1="145.8406" y1="663.108" x2="243.0646" y2="565.884">
			<stop  offset="0" style="stop-color:#FF00C0"/>
			<stop  offset="1" style="stop-color:#7810B5"/>
		</linearGradient>
		<path class="st3" d="M191.75,615.35c-3.4,3.4-5.99,7.3-7.77,11.47l19.24-19.24C199.05,609.36,195.15,611.95,191.75,615.35z"/>
		<linearGradient id="SVGID_4_" gradientUnits="userSpaceOnUse" x1="150.3708" y1="667.6382" x2="247.5946" y2="570.4144">
			<stop  offset="0" style="stop-color:#FF00C0"/>
			<stop  offset="1" style="stop-color:#7810B5"/>
		</linearGradient>
		<path class="st4" d="M181.13,638.73l34-34c-1.42,0.1-2.83,0.27-4.23,0.53l-29.23,29.23C181.4,635.9,181.22,637.31,181.13,638.73z"
			/>
		<linearGradient id="SVGID_5_" gradientUnits="userSpaceOnUse" x1="154.9009" y1="672.1685" x2="252.1249" y2="574.9445">
			<stop  offset="0" style="stop-color:#FF00C0"/>
			<stop  offset="1" style="stop-color:#7810B5"/>
		</linearGradient>
		<path class="st5" d="M181.56,647.36l42.19-42.19c-1.09-0.19-2.19-0.32-3.29-0.41l-39.3,39.3
			C181.24,645.16,181.38,646.26,181.56,647.36z"/>
		<linearGradient id="SVGID_6_" gradientUnits="userSpaceOnUse" x1="159.4312" y1="676.6987" x2="256.6553" y2="579.4746">
			<stop  offset="0" style="stop-color:#FF00C0"/>
			<stop  offset="1" style="stop-color:#7810B5"/>
		</linearGradient>
		<path class="st6" d="M183.53,654.45l47.32-47.32c-0.91-0.35-1.83-0.67-2.75-0.95l-45.52,45.52
			C182.86,652.63,183.17,653.54,183.53,654.45z"/>
		<linearGradient id="SVGID_7_" gradientUnits="userSpaceOnUse" x1="163.9614" y1="681.2289" x2="261.1856" y2="584.0048">
			<stop  offset="0" style="stop-color:#FF00C0"/>
			<stop  offset="1" style="stop-color:#7810B5"/>
		</linearGradient>
		<path class="st7" d="M186.55,660.49l50.34-50.34c-0.77-0.48-1.56-0.93-2.35-1.35l-49.34,49.34
			C185.62,658.94,186.07,659.72,186.55,660.49z"/>
		<linearGradient id="SVGID_8_" gradientUnits="userSpaceOnUse" x1="168.4916" y1="685.7591" x2="265.7156" y2="588.5351">
			<stop  offset="0" style="stop-color:#FF00C0"/>
			<stop  offset="1" style="stop-color:#7810B5"/>
		</linearGradient>
		<path class="st8" d="M190.44,665.66l51.61-51.61c-0.65-0.59-1.33-1.15-2.01-1.69l-51.29,51.29
			C189.29,664.33,189.85,665,190.44,665.66z"/>
		<linearGradient id="SVGID_9_" gradientUnits="userSpaceOnUse" x1="173.0219" y1="690.2893" x2="270.2458" y2="593.0654">
			<stop  offset="0" style="stop-color:#FF00C0"/>
			<stop  offset="1" style="stop-color:#7810B5"/>
		</linearGradient>
		<path class="st9" d="M195.13,670.03l51.29-51.29c-0.54-0.69-1.1-1.36-1.69-2.01l-51.61,51.61
			C193.78,668.93,194.45,669.49,195.13,670.03z"/>
		<linearGradient id="SVGID_10_" gradientUnits="userSpaceOnUse" x1="177.552" y1="694.8196" x2="274.7762" y2="597.5953">
			<stop  offset="0" style="stop-color:#FF00C0"/>
			<stop  offset="1" style="stop-color:#7810B5"/>
		</linearGradient>
		<path class="st10" d="M200.64,673.58l49.34-49.34c-0.42-0.8-0.87-1.58-1.35-2.35l-50.34,50.34
			C199.06,672.71,199.84,673.16,200.64,673.58z"/>
		<linearGradient id="SVGID_11_" gradientUnits="userSpaceOnUse" x1="182.0822" y1="699.3498" x2="279.3063" y2="602.1257">
			<stop  offset="0" style="stop-color:#FF00C0"/>
			<stop  offset="1" style="stop-color:#7810B5"/>
		</linearGradient>
		<path class="st11" d="M207.08,676.2l45.52-45.52c-0.28-0.93-0.59-1.85-0.95-2.75l-47.32,47.32
			C205.24,675.61,206.15,675.92,207.08,676.2z"/>
		<linearGradient id="SVGID_12_" gradientUnits="userSpaceOnUse" x1="186.6125" y1="703.88" x2="283.8364" y2="606.6561">
			<stop  offset="0" style="stop-color:#FF00C0"/>
			<stop  offset="1" style="stop-color:#7810B5"/>
		</linearGradient>
		<path class="st12" d="M214.72,677.62l39.3-39.3c-0.09-1.1-0.22-2.2-0.41-3.29l-42.19,42.19
			C212.52,677.4,213.62,677.54,214.72,677.62z"/>
		<linearGradient id="SVGID_13_" gradientUnits="userSpaceOnUse" x1="191.1427" y1="708.4101" x2="288.3668" y2="611.186">
			<stop  offset="0" style="stop-color:#FF00C0"/>
			<stop  offset="1" style="stop-color:#7810B5"/>
		</linearGradient>
		<path class="st13" d="M224.28,677.12l29.23-29.23c0.26-1.4,0.44-2.82,0.53-4.23l-34,34C221.47,677.56,222.88,677.38,224.28,677.12
			z"/>
		<linearGradient id="SVGID_14_" gradientUnits="userSpaceOnUse" x1="195.6729" y1="712.9404" x2="292.8969" y2="615.7164">
			<stop  offset="0" style="stop-color:#FF00C0"/>
			<stop  offset="1" style="stop-color:#7810B5"/>
		</linearGradient>
		<path class="st14" d="M243.43,667.03c3.4-3.4,5.99-7.3,7.77-11.47l-19.24,19.24C236.13,673.02,240.03,670.43,243.43,667.03z"/>
	</g>
	<g>
		<g>
			<linearGradient id="SVGID_15_" gradientUnits="userSpaceOnUse" x1="-49.0543" y1="696.5165" x2="70.7624" y2="576.6998">
				<stop  offset="0" style="stop-color:#F9C900"/>
				<stop  offset="1" style="stop-color:#FF5240"/>
			</linearGradient>
			<path class="st15" d="M25.8,622.61l-13.94,13.94l6.02-7.91C20.29,626.22,22.96,624.22,25.8,622.61z"/>
			<linearGradient id="SVGID_16_" gradientUnits="userSpaceOnUse" x1="-42.6696" y1="702.9008" x2="77.1469" y2="583.0843">
				<stop  offset="0" style="stop-color:#F9C900"/>
				<stop  offset="1" style="stop-color:#FF5240"/>
			</linearGradient>
			<path class="st16" d="M43.31,617.87L7.11,654.06c0.01-0.66,0.04-1.32,0.08-1.98l34.14-34.14
				C41.99,617.9,42.65,617.88,43.31,617.87z"/>
			<linearGradient id="SVGID_17_" gradientUnits="userSpaceOnUse" x1="-36.2853" y1="709.2855" x2="83.5313" y2="589.4689">
				<stop  offset="0" style="stop-color:#F9C900"/>
				<stop  offset="1" style="stop-color:#FF5240"/>
			</linearGradient>
			<polygon class="st17" points="54.52,619.43 8.67,665.28 8.26,663.79 53.04,619.01 			"/>
			<linearGradient id="SVGID_18_" gradientUnits="userSpaceOnUse" x1="-29.9008" y1="715.67" x2="89.9159" y2="595.8533">
				<stop  offset="0" style="stop-color:#F9C900"/>
				<stop  offset="1" style="stop-color:#FF5240"/>
			</linearGradient>
			<path class="st18" d="M63.31,623.4l-50.67,50.67l-0.71-1.18l50.19-50.2C62.53,622.91,62.93,623.15,63.31,623.4z"/>
			<linearGradient id="SVGID_19_" gradientUnits="userSpaceOnUse" x1="-23.5203" y1="722.0504" x2="96.2964" y2="602.2337">
				<stop  offset="0" style="stop-color:#F9C900"/>
				<stop  offset="1" style="stop-color:#FF5240"/>
			</linearGradient>
			<path class="st19" d="M69.91,628.64c0.15,0.15,0.31,0.31,0.46,0.47l-52.02,52.02l-0.95-0.95l52.02-52.02
				C69.59,628.32,69.75,628.48,69.91,628.64z"/>
			<linearGradient id="SVGID_20_" gradientUnits="userSpaceOnUse" x1="-17.1357" y1="728.4349" x2="102.6807" y2="608.6185">
				<stop  offset="0" style="stop-color:#F9C900"/>
				<stop  offset="1" style="stop-color:#FF5240"/>
			</linearGradient>
			<polygon class="st20" points="75.14,635.22 75.85,636.4 25.64,686.6 24.46,685.89 			"/>
			<linearGradient id="SVGID_21_" gradientUnits="userSpaceOnUse" x1="-10.7513" y1="734.8195" x2="109.0655" y2="615.0026">
				<stop  offset="0" style="stop-color:#F9C900"/>
				<stop  offset="1" style="stop-color:#FF5240"/>
			</linearGradient>
			<polygon class="st21" points="79.12,644.01 79.53,645.48 34.73,690.29 33.25,689.87 			"/>
			<linearGradient id="SVGID_22_" gradientUnits="userSpaceOnUse" x1="-4.3667" y1="741.2039" x2="115.4501" y2="621.387">
				<stop  offset="0" style="stop-color:#F9C900"/>
				<stop  offset="1" style="stop-color:#FF5240"/>
			</linearGradient>
			<path class="st22" d="M80.68,655.21c-0.01,0.66-0.04,1.32-0.08,1.97l-34.18,34.18c-0.66,0.04-1.31,0.07-1.97,0.08L80.68,655.21z"
				/>
			<linearGradient id="SVGID_23_" gradientUnits="userSpaceOnUse" x1="2.0136" y1="747.5845" x2="121.8303" y2="627.7678">
				<stop  offset="0" style="stop-color:#F9C900"/>
				<stop  offset="1" style="stop-color:#FF5240"/>
			</linearGradient>
			<polygon class="st23" points="76,672.66 70.9,679.65 68.89,681.66 61.9,686.75 			"/>
		</g>
		<linearGradient id="SVGID_24_" gradientUnits="userSpaceOnUse" x1="2.0236" y1="747.5945" x2="121.8404" y2="627.7778">
			<stop  offset="0" style="stop-color:#F9C900"/>
			<stop  offset="1" style="stop-color:#FF5240"/>
		</linearGradient>
		<path class="st24" d="M61.9,686.75L76,672.66c-1.39,2.48-3.09,4.82-5.1,6.99c-0.32,0.35-0.65,0.69-0.99,1.03
			c-0.34,0.34-0.68,0.66-1.03,0.99C66.73,683.66,64.38,685.36,61.9,686.75z"/>
		<linearGradient id="SVGID_25_" gradientUnits="userSpaceOnUse" x1="-4.3667" y1="741.2039" x2="115.4501" y2="621.387">
			<stop  offset="0" style="stop-color:#F9C900"/>
			<stop  offset="1" style="stop-color:#FF5240"/>
		</linearGradient>
		<path class="st25" d="M44.45,691.44l36.23-36.23c-0.01,0.66-0.04,1.32-0.08,1.97l-34.18,34.18
			C45.77,691.4,45.11,691.43,44.45,691.44z"/>
		<linearGradient id="SVGID_26_" gradientUnits="userSpaceOnUse" x1="-10.7513" y1="734.8195" x2="109.0655" y2="615.0026">
			<stop  offset="0" style="stop-color:#F9C900"/>
			<stop  offset="1" style="stop-color:#FF5240"/>
		</linearGradient>
		<polygon class="st26" points="33.25,689.87 79.12,644.01 79.53,645.48 34.73,690.29 		"/>
		<linearGradient id="SVGID_27_" gradientUnits="userSpaceOnUse" x1="-17.1357" y1="728.4349" x2="102.6807" y2="608.6185">
			<stop  offset="0" style="stop-color:#F9C900"/>
			<stop  offset="1" style="stop-color:#FF5240"/>
		</linearGradient>
		<polygon class="st27" points="24.46,685.89 75.14,635.22 75.85,636.4 25.64,686.6 		"/>
		<linearGradient id="SVGID_28_" gradientUnits="userSpaceOnUse" x1="-49.0543" y1="696.5165" x2="70.7624" y2="576.6998">
			<stop  offset="0" style="stop-color:#F9C900"/>
			<stop  offset="1" style="stop-color:#FF5240"/>
		</linearGradient>
		<path class="st28" d="M25.8,622.61l-13.94,13.94c1.6-2.83,3.61-5.5,6.02-7.91C20.29,626.22,22.96,624.22,25.8,622.61z"/>
		<linearGradient id="SVGID_29_" gradientUnits="userSpaceOnUse" x1="-42.6696" y1="702.9008" x2="77.1469" y2="583.0843">
			<stop  offset="0" style="stop-color:#F9C900"/>
			<stop  offset="1" style="stop-color:#FF5240"/>
		</linearGradient>
		<path class="st29" d="M43.31,617.87L7.11,654.06c0.01-0.66,0.04-1.32,0.08-1.98l34.14-34.14
			C41.99,617.9,42.65,617.88,43.31,617.87z"/>
		<linearGradient id="SVGID_30_" gradientUnits="userSpaceOnUse" x1="-36.2853" y1="709.2855" x2="83.5313" y2="589.4689">
			<stop  offset="0" style="stop-color:#F9C900"/>
			<stop  offset="1" style="stop-color:#FF5240"/>
		</linearGradient>
		<polygon class="st30" points="54.52,619.43 8.67,665.28 8.26,663.79 53.04,619.01 		"/>
		<linearGradient id="SVGID_31_" gradientUnits="userSpaceOnUse" x1="-29.9008" y1="715.67" x2="89.9159" y2="595.8533">
			<stop  offset="0" style="stop-color:#F9C900"/>
			<stop  offset="1" style="stop-color:#FF5240"/>
		</linearGradient>
		<path class="st31" d="M63.31,623.4l-50.67,50.67l-0.71-1.18l50.19-50.2C62.53,622.91,62.93,623.15,63.31,623.4z"/>
		<linearGradient id="SVGID_32_" gradientUnits="userSpaceOnUse" x1="-23.5203" y1="722.0505" x2="96.2963" y2="602.2338">
			<stop  offset="0" style="stop-color:#F9C900"/>
			<stop  offset="1" style="stop-color:#FF5240"/>
		</linearGradient>
		<path class="st32" d="M69.91,628.64c0.15,0.15,0.31,0.31,0.46,0.47l-52.02,52.02c-0.16-0.15-0.31-0.31-0.47-0.46
			c-0.16-0.16-0.32-0.32-0.48-0.49l52.02-52.02C69.59,628.32,69.75,628.48,69.91,628.64z"/>
	</g>
	<g>
		<g>
			<linearGradient id="SVGID_33_" gradientUnits="userSpaceOnUse" x1="-85.0252" y1="336.4278" x2="38.9579" y2="212.4447">
				<stop  offset="0" style="stop-color:#F9C900"/>
				<stop  offset="1" style="stop-color:#FF5240"/>
			</linearGradient>
			<path class="st33" d="M-7.57,259.95L-22,274.38l6.23-8.19C-13.27,263.69-10.51,261.61-7.57,259.95z"/>
			<linearGradient id="SVGID_34_" gradientUnits="userSpaceOnUse" x1="-78.4185" y1="343.0341" x2="45.5645" y2="219.0511">
				<stop  offset="0" style="stop-color:#F9C900"/>
				<stop  offset="1" style="stop-color:#FF5240"/>
			</linearGradient>
			<path class="st34" d="M10.55,255.04L-26.9,292.5c0.01-0.68,0.04-1.36,0.09-2.04l35.32-35.32
				C9.19,255.08,9.87,255.05,10.55,255.04z"/>
			<linearGradient id="SVGID_35_" gradientUnits="userSpaceOnUse" x1="-71.8122" y1="349.6408" x2="52.1709" y2="225.6577">
				<stop  offset="0" style="stop-color:#F9C900"/>
				<stop  offset="1" style="stop-color:#FF5240"/>
			</linearGradient>
			<polygon class="st35" points="22.15,256.66 -25.29,304.1 -25.72,302.57 20.62,256.23 			"/>
			<linearGradient id="SVGID_36_" gradientUnits="userSpaceOnUse" x1="-65.2057" y1="356.2473" x2="58.7774" y2="232.2642">
				<stop  offset="0" style="stop-color:#F9C900"/>
				<stop  offset="1" style="stop-color:#FF5240"/>
			</linearGradient>
			<path class="st36" d="M31.25,260.77l-52.43,52.43l-0.73-1.22l51.94-51.94C30.44,260.27,30.85,260.51,31.25,260.77z"/>
			<linearGradient id="SVGID_37_" gradientUnits="userSpaceOnUse" x1="-58.6033" y1="362.8496" x2="65.3799" y2="238.8665">
				<stop  offset="0" style="stop-color:#F9C900"/>
				<stop  offset="1" style="stop-color:#FF5240"/>
			</linearGradient>
			<path class="st37" d="M38.08,266.19c0.16,0.16,0.32,0.32,0.47,0.48l-53.83,53.83l-0.98-0.98l53.83-53.83
				C37.75,265.86,37.91,266.02,38.08,266.19z"/>
			<linearGradient id="SVGID_38_" gradientUnits="userSpaceOnUse" x1="-51.9967" y1="369.4561" x2="71.9862" y2="245.4732">
				<stop  offset="0" style="stop-color:#F9C900"/>
				<stop  offset="1" style="stop-color:#FF5240"/>
			</linearGradient>
			<polygon class="st38" points="43.49,273 44.22,274.22 -7.73,326.17 -8.95,325.44 			"/>
			<linearGradient id="SVGID_39_" gradientUnits="userSpaceOnUse" x1="-45.3903" y1="376.0627" x2="78.593" y2="252.0794">
				<stop  offset="0" style="stop-color:#F9C900"/>
				<stop  offset="1" style="stop-color:#FF5240"/>
			</linearGradient>
			<polygon class="st39" points="47.6,282.09 48.03,283.62 1.67,329.98 0.14,329.55 			"/>
			<linearGradient id="SVGID_40_" gradientUnits="userSpaceOnUse" x1="-38.7837" y1="382.6691" x2="85.1996" y2="258.6859">
				<stop  offset="0" style="stop-color:#F9C900"/>
				<stop  offset="1" style="stop-color:#FF5240"/>
			</linearGradient>
			<path class="st40" d="M49.22,293.68c-0.01,0.68-0.04,1.36-0.08,2.04l-35.36,35.36c-0.68,0.05-1.36,0.07-2.04,0.08L49.22,293.68z"
				/>
			<linearGradient id="SVGID_41_" gradientUnits="userSpaceOnUse" x1="-32.1815" y1="389.2717" x2="91.8017" y2="265.2885">
				<stop  offset="0" style="stop-color:#F9C900"/>
				<stop  offset="1" style="stop-color:#FF5240"/>
			</linearGradient>
			<polygon class="st41" points="44.37,311.74 39.1,318.97 37.02,321.05 29.79,326.32 			"/>
		</g>
		<linearGradient id="SVGID_42_" gradientUnits="userSpaceOnUse" x1="-32.1711" y1="389.282" x2="91.8121" y2="265.2989">
			<stop  offset="0" style="stop-color:#F9C900"/>
			<stop  offset="1" style="stop-color:#FF5240"/>
		</linearGradient>
		<path class="st42" d="M29.79,326.32l14.58-14.58c-1.44,2.56-3.19,4.99-5.27,7.23c-0.33,0.36-0.67,0.71-1.02,1.06
			c-0.35,0.35-0.7,0.69-1.06,1.02C34.78,323.13,32.35,324.89,29.79,326.32z"/>
		<linearGradient id="SVGID_43_" gradientUnits="userSpaceOnUse" x1="-38.7837" y1="382.6691" x2="85.1996" y2="258.6859">
			<stop  offset="0" style="stop-color:#F9C900"/>
			<stop  offset="1" style="stop-color:#FF5240"/>
		</linearGradient>
		<path class="st43" d="M11.74,331.17l37.49-37.49c-0.01,0.68-0.04,1.36-0.08,2.04l-35.36,35.36
			C13.1,331.13,12.42,331.16,11.74,331.17z"/>
		<linearGradient id="SVGID_44_" gradientUnits="userSpaceOnUse" x1="-45.3903" y1="376.0627" x2="78.593" y2="252.0794">
			<stop  offset="0" style="stop-color:#F9C900"/>
			<stop  offset="1" style="stop-color:#FF5240"/>
		</linearGradient>
		<polygon class="st44" points="0.14,329.55 47.6,282.09 48.03,283.62 1.67,329.98 		"/>
		<linearGradient id="SVGID_45_" gradientUnits="userSpaceOnUse" x1="-51.9967" y1="369.4561" x2="71.9862" y2="245.4732">
			<stop  offset="0" style="stop-color:#F9C900"/>
			<stop  offset="1" style="stop-color:#FF5240"/>
		</linearGradient>
		<polygon class="st45" points="-8.95,325.44 43.49,273 44.22,274.22 -7.73,326.17 		"/>
		<linearGradient id="SVGID_46_" gradientUnits="userSpaceOnUse" x1="-85.0252" y1="336.4278" x2="38.9579" y2="212.4447">
			<stop  offset="0" style="stop-color:#F9C900"/>
			<stop  offset="1" style="stop-color:#FF5240"/>
		</linearGradient>
		<path class="st46" d="M-7.57,259.95L-22,274.38c1.66-2.93,3.73-5.69,6.23-8.19C-13.27,263.69-10.51,261.61-7.57,259.95z"/>
		<linearGradient id="SVGID_47_" gradientUnits="userSpaceOnUse" x1="-78.4185" y1="343.0341" x2="45.5645" y2="219.0511">
			<stop  offset="0" style="stop-color:#F9C900"/>
			<stop  offset="1" style="stop-color:#FF5240"/>
		</linearGradient>
		<path class="st47" d="M10.55,255.04L-26.9,292.5c0.01-0.68,0.04-1.36,0.09-2.04l35.32-35.32C9.19,255.08,9.87,255.05,10.55,255.04
			z"/>
		<linearGradient id="SVGID_48_" gradientUnits="userSpaceOnUse" x1="-71.8122" y1="349.6408" x2="52.1709" y2="225.6577">
			<stop  offset="0" style="stop-color:#F9C900"/>
			<stop  offset="1" style="stop-color:#FF5240"/>
		</linearGradient>
		<polygon class="st48" points="22.15,256.66 -25.29,304.1 -25.72,302.57 20.62,256.23 		"/>
		<linearGradient id="SVGID_49_" gradientUnits="userSpaceOnUse" x1="-65.2057" y1="356.2473" x2="58.7774" y2="232.2642">
			<stop  offset="0" style="stop-color:#F9C900"/>
			<stop  offset="1" style="stop-color:#FF5240"/>
		</linearGradient>
		<path class="st49" d="M31.25,260.77l-52.43,52.43l-0.73-1.22l51.94-51.94C30.44,260.27,30.85,260.51,31.25,260.77z"/>
		<linearGradient id="SVGID_50_" gradientUnits="userSpaceOnUse" x1="-58.6034" y1="362.8497" x2="65.3798" y2="238.8665">
			<stop  offset="0" style="stop-color:#F9C900"/>
			<stop  offset="1" style="stop-color:#FF5240"/>
		</linearGradient>
		<path class="st50" d="M38.08,266.19c0.16,0.16,0.32,0.32,0.47,0.48l-53.83,53.83c-0.16-0.15-0.32-0.32-0.48-0.47
			c-0.17-0.17-0.33-0.33-0.5-0.5l53.83-53.83C37.75,265.86,37.91,266.02,38.08,266.19z"/>
	</g>
	<g>
		<g>
			<linearGradient id="SVGID_51_" gradientUnits="userSpaceOnUse" x1="994.3314" y1="715.8198" x2="1221.9553" y2="488.1959">
				<stop  offset="0" style="stop-color:#F9C900"/>
				<stop  offset="1" style="stop-color:#FF5240"/>
			</linearGradient>
			<path class="st51" d="M1136.53,575.42l-26.48,26.48l11.44-15.03C1126.07,582.28,1131.14,578.47,1136.53,575.42z"/>
			<linearGradient id="SVGID_52_" gradientUnits="userSpaceOnUse" x1="1006.4609" y1="727.9484" x2="1234.0845" y2="500.3249">
				<stop  offset="0" style="stop-color:#F9C900"/>
				<stop  offset="1" style="stop-color:#FF5240"/>
			</linearGradient>
			<path class="st52" d="M1169.8,566.41l-68.76,68.76c0.02-1.25,0.07-2.5,0.16-3.75l64.85-64.85
				C1167.3,566.48,1168.55,566.42,1169.8,566.41z"/>
			<linearGradient id="SVGID_53_" gradientUnits="userSpaceOnUse" x1="1018.5896" y1="740.0779" x2="1246.2134" y2="512.4541">
				<stop  offset="0" style="stop-color:#F9C900"/>
				<stop  offset="1" style="stop-color:#FF5240"/>
			</linearGradient>
			<polygon class="st53" points="1191.1,569.36 1103.99,656.47 1103.22,653.66 1188.29,568.58 			"/>
			<linearGradient id="SVGID_54_" gradientUnits="userSpaceOnUse" x1="1030.7186" y1="752.207" x2="1258.3425" y2="524.5831">
				<stop  offset="0" style="stop-color:#F9C900"/>
				<stop  offset="1" style="stop-color:#FF5240"/>
			</linearGradient>
			<path class="st54" d="M1207.81,576.92l-96.26,96.26l-1.34-2.25l95.36-95.36C1206.32,575.99,1207.07,576.44,1207.81,576.92z"/>
			<linearGradient id="SVGID_55_" gradientUnits="userSpaceOnUse" x1="1042.8402" y1="764.3282" x2="1270.4641" y2="536.7043">
				<stop  offset="0" style="stop-color:#F9C900"/>
				<stop  offset="1" style="stop-color:#FF5240"/>
			</linearGradient>
			<path class="st55" d="M1220.34,586.87c0.29,0.29,0.59,0.59,0.87,0.89l-98.83,98.83l-1.8-1.8l98.83-98.83
				C1219.73,586.25,1220.03,586.56,1220.34,586.87z"/>
			<linearGradient id="SVGID_56_" gradientUnits="userSpaceOnUse" x1="1054.9692" y1="776.4573" x2="1282.5928" y2="548.8339">
				<stop  offset="0" style="stop-color:#F9C900"/>
				<stop  offset="1" style="stop-color:#FF5240"/>
			</linearGradient>
			<polygon class="st56" points="1230.27,599.36 1231.61,601.61 1136.24,696.98 1133.99,695.64 			"/>
			<linearGradient id="SVGID_57_" gradientUnits="userSpaceOnUse" x1="1067.0981" y1="788.5866" x2="1294.7225" y2="560.9623">
				<stop  offset="0" style="stop-color:#F9C900"/>
				<stop  offset="1" style="stop-color:#FF5240"/>
			</linearGradient>
			<polygon class="st57" points="1237.83,616.06 1238.61,618.87 1153.5,703.98 1150.69,703.2 			"/>
			<linearGradient id="SVGID_58_" gradientUnits="userSpaceOnUse" x1="1079.2274" y1="800.7155" x2="1306.8517" y2="573.0912">
				<stop  offset="0" style="stop-color:#F9C900"/>
				<stop  offset="1" style="stop-color:#FF5240"/>
			</linearGradient>
			<path class="st58" d="M1240.8,637.35c-0.02,1.25-0.07,2.5-0.15,3.75l-64.93,64.93c-1.25,0.08-2.49,0.14-3.75,0.15L1240.8,637.35z
				"/>
			<linearGradient id="SVGID_59_" gradientUnits="userSpaceOnUse" x1="1091.3485" y1="812.8373" x2="1318.9727" y2="585.2131">
				<stop  offset="0" style="stop-color:#F9C900"/>
				<stop  offset="1" style="stop-color:#FF5240"/>
			</linearGradient>
			<polygon class="st59" points="1231.9,670.49 1222.21,683.77 1218.39,687.59 1205.12,697.27 			"/>
		</g>
		<linearGradient id="SVGID_60_" gradientUnits="userSpaceOnUse" x1="1091.3677" y1="812.8564" x2="1318.9917" y2="585.2322">
			<stop  offset="0" style="stop-color:#F9C900"/>
			<stop  offset="1" style="stop-color:#FF5240"/>
		</linearGradient>
		<path class="st60" d="M1205.12,697.27l26.77-26.77c-2.64,4.71-5.86,9.16-9.68,13.28c-0.61,0.66-1.23,1.31-1.87,1.95
			c-0.64,0.64-1.29,1.26-1.95,1.87C1214.29,691.4,1209.82,694.63,1205.12,697.27z"/>
		<linearGradient id="SVGID_61_" gradientUnits="userSpaceOnUse" x1="1079.2274" y1="800.7155" x2="1306.8517" y2="573.0912">
			<stop  offset="0" style="stop-color:#F9C900"/>
			<stop  offset="1" style="stop-color:#FF5240"/>
		</linearGradient>
		<path class="st61" d="M1171.98,706.17l68.82-68.82c-0.02,1.25-0.07,2.5-0.15,3.75l-64.93,64.93
			C1174.48,706.1,1173.23,706.15,1171.98,706.17z"/>
		<linearGradient id="SVGID_62_" gradientUnits="userSpaceOnUse" x1="1067.0981" y1="788.5866" x2="1294.7225" y2="560.9623">
			<stop  offset="0" style="stop-color:#F9C900"/>
			<stop  offset="1" style="stop-color:#FF5240"/>
		</linearGradient>
		<polygon class="st62" points="1150.69,703.2 1237.83,616.06 1238.61,618.87 1153.5,703.98 		"/>
		<linearGradient id="SVGID_63_" gradientUnits="userSpaceOnUse" x1="1054.9692" y1="776.4573" x2="1282.5928" y2="548.8339">
			<stop  offset="0" style="stop-color:#F9C900"/>
			<stop  offset="1" style="stop-color:#FF5240"/>
		</linearGradient>
		<polygon class="st63" points="1133.99,695.64 1230.27,599.36 1231.61,601.61 1136.24,696.98 		"/>
		<linearGradient id="SVGID_64_" gradientUnits="userSpaceOnUse" x1="994.3314" y1="715.8198" x2="1221.9553" y2="488.1959">
			<stop  offset="0" style="stop-color:#F9C900"/>
			<stop  offset="1" style="stop-color:#FF5240"/>
		</linearGradient>
		<path class="st64" d="M1136.53,575.42l-26.48,26.48c3.04-5.38,6.86-10.45,11.44-15.03
			C1126.07,582.28,1131.14,578.47,1136.53,575.42z"/>
		<linearGradient id="SVGID_65_" gradientUnits="userSpaceOnUse" x1="1006.4609" y1="727.9484" x2="1234.0845" y2="500.3249">
			<stop  offset="0" style="stop-color:#F9C900"/>
			<stop  offset="1" style="stop-color:#FF5240"/>
		</linearGradient>
		<path class="st65" d="M1169.8,566.41l-68.76,68.76c0.02-1.25,0.07-2.5,0.16-3.75l64.85-64.85
			C1167.3,566.48,1168.55,566.42,1169.8,566.41z"/>
		<linearGradient id="SVGID_66_" gradientUnits="userSpaceOnUse" x1="1018.5896" y1="740.0779" x2="1246.2134" y2="512.4541">
			<stop  offset="0" style="stop-color:#F9C900"/>
			<stop  offset="1" style="stop-color:#FF5240"/>
		</linearGradient>
		<polygon class="st66" points="1191.1,569.36 1103.99,656.47 1103.22,653.66 1188.29,568.58 		"/>
		<linearGradient id="SVGID_67_" gradientUnits="userSpaceOnUse" x1="1030.7186" y1="752.207" x2="1258.3425" y2="524.5831">
			<stop  offset="0" style="stop-color:#F9C900"/>
			<stop  offset="1" style="stop-color:#FF5240"/>
		</linearGradient>
		<path class="st67" d="M1207.81,576.92l-96.26,96.26l-1.34-2.25l95.36-95.36C1206.32,575.99,1207.07,576.44,1207.81,576.92z"/>
		<linearGradient id="SVGID_68_" gradientUnits="userSpaceOnUse" x1="1042.84" y1="764.3284" x2="1270.464" y2="536.7045">
			<stop  offset="0" style="stop-color:#F9C900"/>
			<stop  offset="1" style="stop-color:#FF5240"/>
		</linearGradient>
		<path class="st68" d="M1220.34,586.87c0.29,0.29,0.59,0.59,0.87,0.89l-98.83,98.83c-0.3-0.28-0.6-0.58-0.89-0.87
			c-0.31-0.31-0.61-0.61-0.91-0.92l98.83-98.83C1219.73,586.25,1220.03,586.56,1220.34,586.87z"/>
	</g>
	<g>
		<radialGradient id="SVGID_69_" cx="1272.2668" cy="533.7881" r="35.8767" gradientUnits="userSpaceOnUse">
			<stop  offset="0" style="stop-color:#1B0335"/>
			<stop  offset="1" style="stop-color:#FFFFFF"/>
		</radialGradient>
		<path class="st69" d="M1308.45,530.55c0,21.43-17.37,38.8-38.8,38.8c-14.33,0-26.85-7.77-33.57-19.34
			c6.15,4.08,13.52,6.46,21.45,6.46c21.43,0,38.8-17.37,38.8-38.79c0-7.09-1.9-13.74-5.23-19.46
			C1301.56,505.17,1308.45,517.06,1308.45,530.55z"/>
		<linearGradient id="SVGID_70_" gradientUnits="userSpaceOnUse" x1="1296.2332" y1="556.3817" x2="1210.1284" y2="470.277">
			<stop  offset="0" style="stop-color:#FFB717"/>
			<stop  offset="0.1678" style="stop-color:#FF9E2D"/>
			<stop  offset="0.525" style="stop-color:#FF5E65"/>
			<stop  offset="1" style="stop-color:#FF00B7"/>
		</linearGradient>
		<path class="st70" d="M1257.53,478.88c-21.43,0-38.8,17.37-38.8,38.8c0,21.43,17.37,38.8,38.8,38.8c21.43,0,38.8-17.37,38.8-38.8
			C1296.33,496.25,1278.96,478.88,1257.53,478.88z M1257.53,547.37c-16.4,0-29.69-13.29-29.69-29.69c0-16.4,13.29-29.69,29.69-29.69
			s29.69,13.29,29.69,29.69C1287.22,534.08,1273.93,547.37,1257.53,547.37z"/>
	</g>
	<g>
		<linearGradient id="SVGID_71_" gradientUnits="userSpaceOnUse" x1="1217.567" y1="529.8203" x2="1272.7783" y2="474.6089">
			<stop  offset="0" style="stop-color:#FF00C0"/>
			<stop  offset="1" style="stop-color:#7810B5"/>
		</linearGradient>
		<path class="st71" d="M1243.64,502.7c-1.93,1.93-3.4,4.15-4.41,6.51l10.92-10.92C1247.78,499.3,1245.57,500.77,1243.64,502.7z"/>
		<linearGradient id="SVGID_72_" gradientUnits="userSpaceOnUse" x1="1220.1396" y1="532.3929" x2="1275.3507" y2="477.1817">
			<stop  offset="0" style="stop-color:#FF00C0"/>
			<stop  offset="1" style="stop-color:#7810B5"/>
		</linearGradient>
		<path class="st72" d="M1237.61,515.98l19.31-19.31c-0.81,0.05-1.61,0.16-2.4,0.3l-16.6,16.6
			C1237.76,514.37,1237.66,515.17,1237.61,515.98z"/>
		<linearGradient id="SVGID_73_" gradientUnits="userSpaceOnUse" x1="1222.7122" y1="534.9655" x2="1277.9235" y2="479.7542">
			<stop  offset="0" style="stop-color:#FF00C0"/>
			<stop  offset="1" style="stop-color:#7810B5"/>
		</linearGradient>
		<path class="st73" d="M1237.85,520.87l23.96-23.96c-0.62-0.11-1.24-0.18-1.87-0.23L1237.62,519
			C1237.67,519.63,1237.75,520.25,1237.85,520.87z"/>
		<linearGradient id="SVGID_74_" gradientUnits="userSpaceOnUse" x1="1225.2848" y1="537.5381" x2="1280.4961" y2="482.3268">
			<stop  offset="0" style="stop-color:#FF00C0"/>
			<stop  offset="1" style="stop-color:#7810B5"/>
		</linearGradient>
		<path class="st74" d="M1238.97,524.91l26.87-26.87c-0.52-0.2-1.04-0.38-1.56-0.54l-25.85,25.85
			C1238.59,523.87,1238.77,524.39,1238.97,524.91z"/>
		<linearGradient id="SVGID_75_" gradientUnits="userSpaceOnUse" x1="1227.8573" y1="540.1108" x2="1283.0688" y2="484.8994">
			<stop  offset="0" style="stop-color:#FF00C0"/>
			<stop  offset="1" style="stop-color:#7810B5"/>
		</linearGradient>
		<path class="st75" d="M1240.68,528.34l28.59-28.59c-0.44-0.27-0.88-0.53-1.34-0.76L1239.92,527
			C1240.16,527.45,1240.41,527.9,1240.68,528.34z"/>
		<linearGradient id="SVGID_76_" gradientUnits="userSpaceOnUse" x1="1230.4299" y1="542.6833" x2="1285.6412" y2="487.472">
			<stop  offset="0" style="stop-color:#FF00C0"/>
			<stop  offset="1" style="stop-color:#7810B5"/>
		</linearGradient>
		<path class="st76" d="M1242.9,531.27l29.31-29.31c-0.37-0.34-0.75-0.65-1.14-0.96l-29.13,29.13
			C1242.24,530.52,1242.56,530.9,1242.9,531.27z"/>
		<linearGradient id="SVGID_77_" gradientUnits="userSpaceOnUse" x1="1233.0026" y1="545.256" x2="1288.2139" y2="490.0447">
			<stop  offset="0" style="stop-color:#FF00C0"/>
			<stop  offset="1" style="stop-color:#7810B5"/>
		</linearGradient>
		<path class="st77" d="M1245.56,533.75l29.13-29.13c-0.3-0.39-0.62-0.77-0.96-1.14l-29.31,29.31
			C1244.79,533.13,1245.17,533.45,1245.56,533.75z"/>
		<linearGradient id="SVGID_78_" gradientUnits="userSpaceOnUse" x1="1235.5752" y1="547.8286" x2="1290.7866" y2="492.6172">
			<stop  offset="0" style="stop-color:#FF00C0"/>
			<stop  offset="1" style="stop-color:#7810B5"/>
		</linearGradient>
		<path class="st78" d="M1248.69,535.77l28.02-28.02c-0.24-0.45-0.49-0.9-0.77-1.34L1247.35,535
			C1247.79,535.28,1248.23,535.53,1248.69,535.77z"/>
		<linearGradient id="SVGID_79_" gradientUnits="userSpaceOnUse" x1="1238.1478" y1="550.4012" x2="1293.3591" y2="495.1898">
			<stop  offset="0" style="stop-color:#FF00C0"/>
			<stop  offset="1" style="stop-color:#7810B5"/>
		</linearGradient>
		<path class="st79" d="M1252.34,537.26l25.85-25.85c-0.16-0.53-0.34-1.05-0.54-1.56l-26.87,26.87
			C1251.3,536.92,1251.82,537.1,1252.34,537.26z"/>
		<linearGradient id="SVGID_80_" gradientUnits="userSpaceOnUse" x1="1240.7205" y1="552.9738" x2="1295.9316" y2="497.7625">
			<stop  offset="0" style="stop-color:#FF00C0"/>
			<stop  offset="1" style="stop-color:#7810B5"/>
		</linearGradient>
		<path class="st80" d="M1256.68,538.06l22.32-22.32c-0.05-0.63-0.13-1.25-0.23-1.87l-23.96,23.96
			C1255.43,537.94,1256.06,538.01,1256.68,538.06z"/>
		<linearGradient id="SVGID_81_" gradientUnits="userSpaceOnUse" x1="1243.293" y1="555.5464" x2="1298.5044" y2="500.335">
			<stop  offset="0" style="stop-color:#FF00C0"/>
			<stop  offset="1" style="stop-color:#7810B5"/>
		</linearGradient>
		<path class="st81" d="M1262.11,537.78l16.6-16.6c0.15-0.8,0.25-1.6,0.3-2.4l-19.31,19.31
			C1260.51,538.03,1261.32,537.92,1262.11,537.78z"/>
		<linearGradient id="SVGID_82_" gradientUnits="userSpaceOnUse" x1="1245.8656" y1="558.119" x2="1301.0769" y2="502.9077">
			<stop  offset="0" style="stop-color:#FF00C0"/>
			<stop  offset="1" style="stop-color:#7810B5"/>
		</linearGradient>
		<path class="st82" d="M1272.99,532.05c1.93-1.93,3.4-4.15,4.41-6.51l-10.92,10.92C1268.84,535.45,1271.06,533.98,1272.99,532.05z"
			/>
	</g>
	<g>
		<g>
			<path class="st2" d="M1253.18,323.63c-1.1,0-2,0.89-2,2c0,1.1,0.89,2,2,2c1.1,0,2-0.89,2-2
				C1255.18,324.52,1254.29,323.63,1253.18,323.63z"/>
			<path class="st2" d="M1268.8,323.63c-1.1,0-2,0.89-2,2c0,1.1,0.89,2,2,2c1.1,0,2-0.89,2-2
				C1270.79,324.52,1269.9,323.63,1268.8,323.63z"/>
			<path class="st2" d="M1284.41,323.63c-1.1,0-2,0.89-2,2c0,1.1,0.89,2,2,2c1.1,0,2-0.89,2-2
				C1286.4,324.52,1285.51,323.63,1284.41,323.63z"/>
			<path class="st2" d="M1300.02,323.63c-1.1,0-2,0.89-2,2c0,1.1,0.89,2,2,2c1.1,0,2-0.89,2-2
				C1302.02,324.52,1301.12,323.63,1300.02,323.63z"/>
			<path class="st2" d="M1315.63,323.63c-1.1,0-2,0.89-2,2c0,1.1,0.89,2,2,2c1.1,0,2-0.89,2-2
				C1317.63,324.52,1316.73,323.63,1315.63,323.63z"/>
			<path class="st2" d="M1331.24,327.62c0.68,0,1.27-0.34,1.63-0.85c-1.09-0.75-2.21-1.48-3.34-2.17c-0.18,0.3-0.29,0.65-0.29,1.03
				C1329.24,326.73,1330.14,327.62,1331.24,327.62z"/>
			<path class="st2" d="M1230.29,342.23c1.1,0,2-0.89,2-2c0-0.88-0.57-1.62-1.36-1.88c-0.83,0.9-1.64,1.82-2.43,2.76
				C1228.83,341.77,1229.5,342.23,1230.29,342.23z"/>
			<circle class="st2" cx="1245.9" cy="340.23" r="2"/>
			<circle class="st2" cx="1261.51" cy="340.23" r="2"/>
			<path class="st2" d="M1277.12,338.23c-1.1,0-2,0.89-2,2c0,1.1,0.89,2,2,2c1.1,0,2-0.89,2-2
				C1279.12,339.13,1278.22,338.23,1277.12,338.23z"/>
			<circle class="st2" cx="1292.73" cy="340.23" r="2"/>
			<circle class="st2" cx="1308.34" cy="340.23" r="2"/>
			<circle class="st2" cx="1323.95" cy="340.23" r="2"/>
			<circle class="st2" cx="1339.57" cy="340.23" r="2"/>
			<path class="st2" d="M1221.96,352.84c-1.1,0-2,0.89-2,2s0.89,2,2,2s2-0.89,2-2S1223.06,352.84,1221.96,352.84z"/>
			<path class="st2" d="M1237.57,352.84c-1.1,0-2,0.89-2,2s0.89,2,2,2c1.1,0,2-0.89,2-2S1238.68,352.84,1237.57,352.84z"/>
			<path class="st2" d="M1253.18,352.84c-1.1,0-2,0.89-2,2s0.89,2,2,2c1.1,0,2-0.89,2-2S1254.29,352.84,1253.18,352.84z"/>
			<path class="st2" d="M1268.8,352.84c-1.1,0-2,0.89-2,2s0.89,2,2,2c1.1,0,2-0.89,2-2S1269.9,352.84,1268.8,352.84z"/>
			<path class="st2" d="M1284.41,352.84c-1.1,0-2,0.89-2,2s0.89,2,2,2c1.1,0,2-0.89,2-2S1285.51,352.84,1284.41,352.84z"/>
			<path class="st2" d="M1300.02,352.84c-1.1,0-2,0.89-2,2s0.89,2,2,2c1.1,0,2-0.89,2-2S1301.12,352.84,1300.02,352.84z"/>
			<path class="st2" d="M1315.63,352.84c-1.1,0-2,0.89-2,2s0.89,2,2,2c1.1,0,2-0.89,2-2S1316.73,352.84,1315.63,352.84z"/>
			<path class="st2" d="M1331.24,352.84c-1.1,0-2,0.89-2,2s0.89,2,2,2c1.1,0,2-0.89,2-2S1332.34,352.84,1331.24,352.84z"/>
			<path class="st2" d="M1346.85,356.83c1.1,0,2-0.89,2-2s-0.89-2-2-2c-1.1,0-2,0.89-2,2S1345.75,356.83,1346.85,356.83z"/>
			<path class="st2" d="M1214.68,371.44c1.1,0,2-0.89,2-2c0-1.1-0.89-2-2-2c-0.26,0-0.51,0.05-0.74,0.15
				c-0.32,0.99-0.61,1.99-0.89,3C1213.41,371.1,1214,371.44,1214.68,371.44z"/>
			<circle class="st2" cx="1230.29" cy="369.44" r="2"/>
			<circle class="st2" cx="1245.9" cy="369.44" r="2"/>
			<circle class="st2" cx="1261.51" cy="369.44" r="2"/>
			<path class="st2" d="M1277.12,367.44c-1.1,0-2,0.89-2,2c0,1.1,0.89,2,2,2c1.1,0,2-0.89,2-2
				C1279.12,368.34,1278.22,367.44,1277.12,367.44z"/>
			<circle class="st2" cx="1292.73" cy="369.44" r="2"/>
			<circle class="st2" cx="1308.34" cy="369.44" r="2"/>
			<circle class="st2" cx="1323.95" cy="369.44" r="2"/>
			<circle class="st2" cx="1339.57" cy="369.44" r="2"/>
			<circle class="st2" cx="1355.18" cy="369.44" r="2"/>
			<path class="st2" d="M1221.96,382.05c-1.1,0-2,0.89-2,2s0.89,2,2,2s2-0.89,2-2S1223.06,382.05,1221.96,382.05z"/>
			<circle class="st2" cx="1237.57" cy="384.05" r="2"/>
			<circle class="st2" cx="1253.18" cy="384.05" r="2"/>
			<circle class="st2" cx="1268.8" cy="384.05" r="2"/>
			<circle class="st2" cx="1284.41" cy="384.05" r="2"/>
			<path class="st2" d="M1300.02,382.05c-1.1,0-2,0.89-2,2s0.89,2,2,2c1.1,0,2-0.89,2-2S1301.12,382.05,1300.02,382.05z"/>
			<path class="st2" d="M1315.63,382.05c-1.1,0-2,0.89-2,2s0.89,2,2,2c1.1,0,2-0.89,2-2S1316.73,382.05,1315.63,382.05z"/>
			<circle class="st2" cx="1331.24" cy="384.05" r="2"/>
			<circle class="st2" cx="1346.85" cy="384.05" r="2"/>
			<ellipse transform="matrix(0.987 -0.161 0.161 0.987 -44.0537 224.3358)" class="st2" cx="1362.46" cy="384.05" rx="2" ry="2"/>
			<circle class="st2" cx="1214.68" cy="398.65" r="2"/>
			<circle class="st2" cx="1230.29" cy="398.65" r="2"/>
			<circle class="st2" cx="1245.9" cy="398.65" r="2"/>
			<circle class="st2" cx="1261.51" cy="398.65" r="2"/>
			<path class="st2" d="M1277.12,396.65c-1.1,0-2,0.89-2,2c0,1.1,0.89,2,2,2c1.1,0,2-0.89,2-2
				C1279.12,397.55,1278.22,396.65,1277.12,396.65z"/>
			<circle class="st2" cx="1292.73" cy="398.65" r="2"/>
			<circle class="st2" cx="1308.34" cy="398.65" r="2"/>
			<circle class="st2" cx="1323.95" cy="398.65" r="2"/>
			<circle class="st2" cx="1339.57" cy="398.65" r="2"/>
			<circle class="st2" cx="1355.18" cy="398.65" r="2"/>
			<path class="st2" d="M1221.96,411.26c-1.1,0-2,0.89-2,2c0,1.1,0.89,2,2,2s2-0.89,2-2
				C1223.96,412.15,1223.06,411.26,1221.96,411.26z"/>
			<path class="st2" d="M1237.57,411.26c-1.1,0-2,0.89-2,2c0,1.1,0.89,2,2,2c1.1,0,2-0.89,2-2
				C1239.57,412.15,1238.68,411.26,1237.57,411.26z"/>
			<path class="st2" d="M1253.18,411.26c-1.1,0-2,0.89-2,2c0,1.1,0.89,2,2,2c1.1,0,2-0.89,2-2
				C1255.18,412.15,1254.29,411.26,1253.18,411.26z"/>
			<path class="st2" d="M1268.8,411.26c-1.1,0-2,0.89-2,2c0,1.1,0.89,2,2,2c1.1,0,2-0.89,2-2
				C1270.79,412.15,1269.9,411.26,1268.8,411.26z"/>
			<path class="st2" d="M1284.41,411.26c-1.1,0-2,0.89-2,2c0,1.1,0.89,2,2,2c1.1,0,2-0.89,2-2
				C1286.4,412.15,1285.51,411.26,1284.41,411.26z"/>
			<path class="st2" d="M1300.02,411.26c-1.1,0-2,0.89-2,2c0,1.1,0.89,2,2,2c1.1,0,2-0.89,2-2
				C1302.02,412.15,1301.12,411.26,1300.02,411.26z"/>
			<path class="st2" d="M1315.63,411.26c-1.1,0-2,0.89-2,2c0,1.1,0.89,2,2,2c1.1,0,2-0.89,2-2
				C1317.63,412.15,1316.73,411.26,1315.63,411.26z"/>
			<path class="st2" d="M1331.24,411.26c-1.1,0-2,0.89-2,2c0,1.1,0.89,2,2,2c1.1,0,2-0.89,2-2
				C1333.24,412.15,1332.34,411.26,1331.24,411.26z"/>
			<path class="st2" d="M1346.85,415.25c1.1,0,2-0.89,2-2c0-1.1-0.89-2-2-2c-1.1,0-2,0.89-2,2
				C1344.85,414.36,1345.75,415.25,1346.85,415.25z"/>
			<path class="st2" d="M1362.46,411.26c-1.1,0-2,0.89-2,2c0,1.1,0.89,2,2,2c0.26,0,0.51-0.05,0.74-0.15c0.32-0.99,0.61-1.99,0.89-3
				C1363.73,411.59,1363.14,411.26,1362.46,411.26z"/>
			<circle class="st2" cx="1230.29" cy="427.86" r="2"/>
			<circle class="st2" cx="1245.9" cy="427.86" r="2"/>
			<circle class="st2" cx="1261.51" cy="427.86" r="2"/>
			<path class="st2" d="M1277.12,425.86c-1.1,0-2,0.89-2,2s0.89,2,2,2c1.1,0,2-0.89,2-2S1278.22,425.86,1277.12,425.86z"/>
			<circle class="st2" cx="1292.73" cy="427.86" r="2"/>
			<circle class="st2" cx="1308.34" cy="427.86" r="2"/>
			<circle class="st2" cx="1323.95" cy="427.86" r="2"/>
			<circle class="st2" cx="1339.57" cy="427.86" r="2"/>
			<circle class="st2" cx="1355.18" cy="427.86" r="2"/>
			<circle class="st2" cx="1237.57" cy="442.47" r="2"/>
			<circle class="st2" cx="1253.18" cy="442.47" r="2"/>
			<circle class="st2" cx="1268.8" cy="442.47" r="2"/>
			<circle class="st2" cx="1284.41" cy="442.47" r="2"/>
			<path class="st2" d="M1300.02,440.47c-1.1,0-2,0.89-2,2c0,1.1,0.89,2,2,2c1.1,0,2-0.89,2-2
				C1302.02,441.36,1301.12,440.47,1300.02,440.47z"/>
			<path class="st2" d="M1315.63,440.47c-1.1,0-2,0.89-2,2c0,1.1,0.89,2,2,2c1.1,0,2-0.89,2-2
				C1317.63,441.36,1316.73,440.47,1315.63,440.47z"/>
			<circle class="st2" cx="1331.24" cy="442.47" r="2"/>
			<path class="st2" d="M1346.85,440.47c-1.1,0-2,0.89-2,2c0,0.88,0.57,1.62,1.36,1.88c0.83-0.9,1.64-1.82,2.43-2.76
				C1348.31,440.93,1347.64,440.47,1346.85,440.47z"/>
			<path class="st2" d="M1245.9,455.07c-0.68,0-1.27,0.34-1.63,0.85c1.09,0.75,2.21,1.48,3.34,2.17c0.18-0.3,0.29-0.65,0.29-1.03
				C1247.9,455.97,1247,455.07,1245.9,455.07z"/>
			<circle class="st2" cx="1261.51" cy="457.07" r="2"/>
			<path class="st2" d="M1277.12,455.07c-1.1,0-2,0.89-2,2s0.89,2,2,2c1.1,0,2-0.89,2-2S1278.22,455.07,1277.12,455.07z"/>
			<circle class="st2" cx="1292.73" cy="457.07" r="2"/>
			<circle class="st2" cx="1308.34" cy="457.07" r="2"/>
			<circle class="st2" cx="1323.95" cy="457.07" r="2"/>
		</g>
	</g>
	<g>
		<g>
			<path class="st2" d="M1221.63,630.52c-0.71,0-1.29,0.58-1.29,1.29c0,0.71,0.58,1.29,1.29,1.29s1.29-0.58,1.29-1.29
				C1222.91,631.1,1222.34,630.52,1221.63,630.52z"/>
			<path class="st2" d="M1231.7,630.52c-0.71,0-1.29,0.58-1.29,1.29c0,0.71,0.58,1.29,1.29,1.29c0.71,0,1.29-0.58,1.29-1.29
				C1232.99,631.1,1232.41,630.52,1231.7,630.52z"/>
			<path class="st2" d="M1241.77,630.52c-0.71,0-1.29,0.58-1.29,1.29c0,0.71,0.58,1.29,1.29,1.29s1.29-0.58,1.29-1.29
				C1243.06,631.1,1242.48,630.52,1241.77,630.52z"/>
			<path class="st2" d="M1251.84,630.52c-0.71,0-1.29,0.58-1.29,1.29c0,0.71,0.58,1.29,1.29,1.29c0.71,0,1.29-0.58,1.29-1.29
				C1253.13,631.1,1252.55,630.52,1251.84,630.52z"/>
			<path class="st2" d="M1261.91,630.52c-0.71,0-1.29,0.58-1.29,1.29c0,0.71,0.58,1.29,1.29,1.29c0.71,0,1.29-0.58,1.29-1.29
				C1263.2,631.1,1262.62,630.52,1261.91,630.52z"/>
			<path class="st2" d="M1271.98,633.1c0.44,0,0.82-0.22,1.05-0.55c-0.71-0.48-1.42-0.95-2.15-1.4c-0.12,0.19-0.19,0.42-0.19,0.66
				C1270.69,632.52,1271.27,633.1,1271.98,633.1z"/>
			<path class="st2" d="M1206.85,642.52c0.71,0,1.29-0.58,1.29-1.29c0-0.57-0.37-1.04-0.88-1.22c-0.54,0.58-1.06,1.18-1.56,1.78
				C1205.91,642.23,1206.35,642.52,1206.85,642.52z"/>
			<circle class="st2" cx="1216.93" cy="641.23" r="1.29"/>
			<circle class="st2" cx="1227" cy="641.23" r="1.29"/>
			<path class="st2" d="M1237.07,639.94c-0.71,0-1.29,0.58-1.29,1.29c0,0.71,0.58,1.29,1.29,1.29c0.71,0,1.29-0.58,1.29-1.29
				C1238.36,640.52,1237.78,639.94,1237.07,639.94z"/>
			<circle class="st2" cx="1247.14" cy="641.23" r="1.29"/>
			<circle class="st2" cx="1257.21" cy="641.23" r="1.29"/>
			<circle class="st2" cx="1267.28" cy="641.23" r="1.29"/>
			<circle class="st2" cx="1277.35" cy="641.23" r="1.29"/>
			<path class="st2" d="M1201.48,649.37c-0.71,0-1.29,0.58-1.29,1.29c0,0.71,0.58,1.29,1.29,1.29c0.71,0,1.29-0.58,1.29-1.29
				C1202.77,649.94,1202.19,649.37,1201.48,649.37z"/>
			<path class="st2" d="M1211.55,649.37c-0.71,0-1.29,0.58-1.29,1.29c0,0.71,0.58,1.29,1.29,1.29c0.71,0,1.29-0.58,1.29-1.29
				C1212.84,649.94,1212.27,649.37,1211.55,649.37z"/>
			<path class="st2" d="M1221.63,649.37c-0.71,0-1.29,0.58-1.29,1.29c0,0.71,0.58,1.29,1.29,1.29s1.29-0.58,1.29-1.29
				C1222.91,649.94,1222.34,649.37,1221.63,649.37z"/>
			<path class="st2" d="M1231.7,649.37c-0.71,0-1.29,0.58-1.29,1.29c0,0.71,0.58,1.29,1.29,1.29c0.71,0,1.29-0.58,1.29-1.29
				C1232.99,649.94,1232.41,649.37,1231.7,649.37z"/>
			<path class="st2" d="M1241.77,649.37c-0.71,0-1.29,0.58-1.29,1.29c0,0.71,0.58,1.29,1.29,1.29s1.29-0.58,1.29-1.29
				C1243.06,649.94,1242.48,649.37,1241.77,649.37z"/>
			<path class="st2" d="M1251.84,649.37c-0.71,0-1.29,0.58-1.29,1.29c0,0.71,0.58,1.29,1.29,1.29c0.71,0,1.29-0.58,1.29-1.29
				C1253.13,649.94,1252.55,649.37,1251.84,649.37z"/>
			<path class="st2" d="M1261.91,649.37c-0.71,0-1.29,0.58-1.29,1.29c0,0.71,0.58,1.29,1.29,1.29c0.71,0,1.29-0.58,1.29-1.29
				C1263.2,649.94,1262.62,649.37,1261.91,649.37z"/>
			<path class="st2" d="M1271.98,649.37c-0.71,0-1.29,0.58-1.29,1.29c0,0.71,0.58,1.29,1.29,1.29c0.71,0,1.29-0.58,1.29-1.29
				C1273.27,649.94,1272.69,649.37,1271.98,649.37z"/>
			<path class="st2" d="M1282.05,651.94c0.71,0,1.29-0.58,1.29-1.29c0-0.71-0.58-1.29-1.29-1.29s-1.29,0.58-1.29,1.29
				C1280.76,651.37,1281.34,651.94,1282.05,651.94z"/>
			<path class="st2" d="M1196.78,661.37c0.71,0,1.29-0.58,1.29-1.29c0-0.71-0.58-1.29-1.29-1.29c-0.17,0-0.33,0.03-0.48,0.09
				c-0.2,0.64-0.39,1.29-0.57,1.94C1195.96,661.15,1196.35,661.37,1196.78,661.37z"/>
			<circle class="st2" cx="1206.85" cy="660.08" r="1.29"/>
			<circle class="st2" cx="1216.93" cy="660.08" r="1.29"/>
			<circle class="st2" cx="1227" cy="660.08" r="1.29"/>
			<path class="st2" d="M1237.07,658.79c-0.71,0-1.29,0.58-1.29,1.29c0,0.71,0.58,1.29,1.29,1.29c0.71,0,1.29-0.58,1.29-1.29
				C1238.36,659.36,1237.78,658.79,1237.07,658.79z"/>
			<circle class="st2" cx="1247.14" cy="660.08" r="1.29"/>
			<circle class="st2" cx="1257.21" cy="660.08" r="1.29"/>
			<circle class="st2" cx="1267.28" cy="660.08" r="1.29"/>
			<circle class="st2" cx="1277.35" cy="660.08" r="1.29"/>
			<circle class="st2" cx="1287.42" cy="660.08" r="1.29"/>
			<path class="st2" d="M1201.48,668.21c-0.71,0-1.29,0.58-1.29,1.29c0,0.71,0.58,1.29,1.29,1.29c0.71,0,1.29-0.58,1.29-1.29
				C1202.77,668.79,1202.19,668.21,1201.48,668.21z"/>
			<circle class="st2" cx="1211.55" cy="669.5" r="1.29"/>
			<circle class="st2" cx="1221.63" cy="669.5" r="1.29"/>
			<circle class="st2" cx="1231.7" cy="669.5" r="1.29"/>
			<circle class="st2" cx="1241.77" cy="669.5" r="1.29"/>
			<path class="st2" d="M1251.84,668.21c-0.71,0-1.29,0.58-1.29,1.29c0,0.71,0.58,1.29,1.29,1.29c0.71,0,1.29-0.58,1.29-1.29
				C1253.13,668.79,1252.55,668.21,1251.84,668.21z"/>
			<path class="st2" d="M1261.91,668.21c-0.71,0-1.29,0.58-1.29,1.29c0,0.71,0.58,1.29,1.29,1.29c0.71,0,1.29-0.58,1.29-1.29
				C1263.2,668.79,1262.62,668.21,1261.91,668.21z"/>
			<circle class="st2" cx="1271.98" cy="669.5" r="1.29"/>
			<circle class="st2" cx="1282.05" cy="669.5" r="1.29"/>
			<circle class="st2" cx="1292.13" cy="669.5" r="1.29"/>
			<circle class="st2" cx="1196.78" cy="678.92" r="1.29"/>
			<circle class="st2" cx="1206.85" cy="678.92" r="1.29"/>
			<circle class="st2" cx="1216.93" cy="678.92" r="1.29"/>
			<circle class="st2" cx="1227" cy="678.92" r="1.29"/>
			<path class="st2" d="M1237.07,677.63c-0.71,0-1.29,0.58-1.29,1.29s0.58,1.29,1.29,1.29c0.71,0,1.29-0.58,1.29-1.29
				S1237.78,677.63,1237.07,677.63z"/>
			<circle class="st2" cx="1247.14" cy="678.92" r="1.29"/>
			<circle class="st2" cx="1257.21" cy="678.92" r="1.29"/>
			<circle class="st2" cx="1267.28" cy="678.92" r="1.29"/>
			<circle class="st2" cx="1277.35" cy="678.92" r="1.29"/>
			<circle class="st2" cx="1287.42" cy="678.92" r="1.29"/>
			<path class="st2" d="M1201.48,687.05c-0.71,0-1.29,0.58-1.29,1.29s0.58,1.29,1.29,1.29c0.71,0,1.29-0.58,1.29-1.29
				S1202.19,687.05,1201.48,687.05z"/>
			<path class="st2" d="M1211.55,687.05c-0.71,0-1.29,0.58-1.29,1.29s0.58,1.29,1.29,1.29c0.71,0,1.29-0.58,1.29-1.29
				S1212.27,687.05,1211.55,687.05z"/>
			<path class="st2" d="M1221.63,687.05c-0.71,0-1.29,0.58-1.29,1.29s0.58,1.29,1.29,1.29s1.29-0.58,1.29-1.29
				S1222.34,687.05,1221.63,687.05z"/>
			<path class="st2" d="M1231.7,687.05c-0.71,0-1.29,0.58-1.29,1.29s0.58,1.29,1.29,1.29c0.71,0,1.29-0.58,1.29-1.29
				S1232.41,687.05,1231.7,687.05z"/>
			<path class="st2" d="M1241.77,687.05c-0.71,0-1.29,0.58-1.29,1.29s0.58,1.29,1.29,1.29s1.29-0.58,1.29-1.29
				S1242.48,687.05,1241.77,687.05z"/>
			<path class="st2" d="M1251.84,687.05c-0.71,0-1.29,0.58-1.29,1.29s0.58,1.29,1.29,1.29c0.71,0,1.29-0.58,1.29-1.29
				S1252.55,687.05,1251.84,687.05z"/>
			<path class="st2" d="M1261.91,687.05c-0.71,0-1.29,0.58-1.29,1.29s0.58,1.29,1.29,1.29c0.71,0,1.29-0.58,1.29-1.29
				S1262.62,687.05,1261.91,687.05z"/>
			<path class="st2" d="M1271.98,687.05c-0.71,0-1.29,0.58-1.29,1.29s0.58,1.29,1.29,1.29c0.71,0,1.29-0.58,1.29-1.29
				S1272.69,687.05,1271.98,687.05z"/>
			<path class="st2" d="M1282.05,689.63c0.71,0,1.29-0.58,1.29-1.29s-0.58-1.29-1.29-1.29s-1.29,0.58-1.29,1.29
				S1281.34,689.63,1282.05,689.63z"/>
			<path class="st2" d="M1292.13,687.05c-0.71,0-1.29,0.58-1.29,1.29s0.58,1.29,1.29,1.29c0.17,0,0.33-0.03,0.48-0.09
				c0.2-0.64,0.39-1.29,0.57-1.94C1292.94,687.27,1292.56,687.05,1292.13,687.05z"/>
			<circle class="st2" cx="1206.85" cy="697.77" r="1.29"/>
			<circle class="st2" cx="1216.93" cy="697.77" r="1.29"/>
			<circle class="st2" cx="1227" cy="697.77" r="1.29"/>
			<path class="st2" d="M1237.07,696.48c-0.71,0-1.29,0.58-1.29,1.29c0,0.71,0.58,1.29,1.29,1.29c0.71,0,1.29-0.58,1.29-1.29
				C1238.36,697.05,1237.78,696.48,1237.07,696.48z"/>
			<circle class="st2" cx="1247.14" cy="697.77" r="1.29"/>
			<circle class="st2" cx="1257.21" cy="697.77" r="1.29"/>
			<circle class="st2" cx="1267.28" cy="697.77" r="1.29"/>
			<circle class="st2" cx="1277.35" cy="697.77" r="1.29"/>
			<circle class="st2" cx="1287.42" cy="697.77" r="1.29"/>
			<circle class="st2" cx="1211.55" cy="707.19" r="1.29"/>
			<circle class="st2" cx="1221.63" cy="707.19" r="1.29"/>
			<circle class="st2" cx="1231.7" cy="707.19" r="1.29"/>
			<circle class="st2" cx="1241.77" cy="707.19" r="1.29"/>
			<path class="st2" d="M1251.84,705.9c-0.71,0-1.29,0.58-1.29,1.29c0,0.71,0.58,1.29,1.29,1.29c0.71,0,1.29-0.58,1.29-1.29
				C1253.13,706.48,1252.55,705.9,1251.84,705.9z"/>
			<path class="st2" d="M1261.91,705.9c-0.71,0-1.29,0.58-1.29,1.29c0,0.71,0.58,1.29,1.29,1.29c0.71,0,1.29-0.58,1.29-1.29
				C1263.2,706.48,1262.62,705.9,1261.91,705.9z"/>
			<circle class="st2" cx="1271.98" cy="707.19" r="1.29"/>
			<path class="st2" d="M1282.05,705.9c-0.71,0-1.29,0.58-1.29,1.29c0,0.57,0.37,1.04,0.88,1.22c0.54-0.58,1.06-1.18,1.56-1.78
				C1283,706.19,1282.56,705.9,1282.05,705.9z"/>
			<path class="st2" d="M1216.93,715.32c-0.44,0-0.82,0.22-1.05,0.55c0.71,0.48,1.42,0.95,2.15,1.4c0.12-0.19,0.19-0.42,0.19-0.66
				C1218.21,715.9,1217.64,715.32,1216.93,715.32z"/>
			<circle class="st2" cx="1227" cy="716.61" r="1.29"/>
			<path class="st2" d="M1237.07,715.32c-0.71,0-1.29,0.58-1.29,1.29c0,0.71,0.58,1.29,1.29,1.29c0.71,0,1.29-0.58,1.29-1.29
				C1238.36,715.9,1237.78,715.32,1237.07,715.32z"/>
			<circle class="st2" cx="1247.14" cy="716.61" r="1.29"/>
			<circle class="st2" cx="1257.21" cy="716.61" r="1.29"/>
			<circle class="st2" cx="1267.28" cy="716.61" r="1.29"/>
		</g>
	</g>
</g>
</svg>
