<?xml version="1.0" encoding="utf-8"?>
<!-- Generator: Adobe Illustrator 23.0.0, SVG Export Plug-In . SVG Version: 6.00 Build 0)  -->
<svg version="1.1" id="Camada_1" xmlns="http://www.w3.org/2000/svg" xmlns:xlink="http://www.w3.org/1999/xlink" x="0px" y="0px"
	 viewBox="0 0 104.63 58.02" style="enable-background:new 0 0 104.63 58.02;" xml:space="preserve">
<style type="text/css">
	.st0{fill:#333333;}
</style>
<g>
	<path class="st0" d="M2.71,54.92H2V1.7l0.71,0.71V54.92z M51.74,11.42V3.48L22.79,32.57L9.09,18.87v36.05H8.39V8.09l18.88,18.88
		L52.45,1.7c0,11.26,0,22.51,0,33.77c-0.24,0-0.47,0-0.71,0c0-7.66,0-15.32,0-22.98l-5.68,5.68c0,5.75,0,11.5,0,17.24
		c-0.24-0.02-0.47-0.04-0.71-0.06c0-5.49,0-10.98,0-16.47l-18.1,18.17l-0.5-0.5L51.74,11.42z M9.09,9.86v7.95l13.62,13.62l3.97-3.97
		L9.09,9.86z"/>
</g>
<g>
	<g>
		<path class="st0" d="M28.49,54.85H27.4V43.63l0.14-2.74h-0.02l-5.5,13.96h-1.05l-5.5-13.96h-0.02l0.14,2.74v11.22h-1.1V39.8h1.71
			l4.54,11.4l0.75,2.3h0.02l0.73-2.28l4.54-11.43h1.71V54.85z"/>
		<path class="st0" d="M34.84,54.85h-1.14V39.8h1.14V54.85z"/>
		<path class="st0" d="M50,54.85l-4.31-6.52h-0.07h-4.45v6.52h-1.14V39.8h5.59c1.51,0,2.7,0.38,3.59,1.14
			c0.89,0.76,1.33,1.8,1.33,3.13c0,1.09-0.32,2-0.96,2.73s-1.51,1.19-2.62,1.4l4.38,6.66H50z M41.18,47.26h4.43
			c1.22,0,2.15-0.27,2.79-0.82c0.65-0.55,0.97-1.34,0.97-2.37c0-1.03-0.32-1.83-0.97-2.38c-0.65-0.56-1.58-0.83-2.79-0.83h-4.43
			V47.26z"/>
		<path class="st0" d="M79.94,40.52c1.04,0.63,1.84,1.53,2.41,2.69c0.56,1.16,0.84,2.54,0.84,4.12c0,1.58-0.28,2.95-0.84,4.12
			c-0.56,1.16-1.36,2.06-2.41,2.69c-1.04,0.63-2.27,0.95-3.68,0.95c-1.41,0-2.64-0.32-3.68-0.95s-1.84-1.53-2.41-2.69
			c-0.56-1.16-0.84-2.54-0.84-4.12c0-1.58,0.28-2.95,0.84-4.12c0.56-1.16,1.36-2.06,2.41-2.69c1.04-0.63,2.27-0.95,3.68-0.95
			C77.67,39.57,78.9,39.89,79.94,40.52z M73.21,41.43c-0.86,0.54-1.52,1.32-1.98,2.33s-0.7,2.2-0.7,3.57s0.23,2.56,0.7,3.57
			c0.46,1.01,1.13,1.79,1.98,2.33c0.86,0.54,1.87,0.81,3.04,0.81s2.19-0.27,3.06-0.81c0.87-0.54,1.53-1.31,2-2.33
			c0.46-1.01,0.7-2.2,0.7-3.57s-0.23-2.56-0.7-3.57c-0.46-1.01-1.13-1.79-2-2.33s-1.89-0.81-3.06-0.81S74.07,40.89,73.21,41.43z"/>
		<path class="st0" d="M97.4,54.85l-4.31-6.52h-0.07h-4.45v6.52h-1.14V39.8h5.59c1.51,0,2.7,0.38,3.59,1.14
			c0.89,0.76,1.33,1.8,1.33,3.13c0,1.09-0.32,2-0.96,2.73s-1.51,1.19-2.62,1.4l4.38,6.66H97.4z M88.57,47.26H93
			c1.22,0,2.15-0.27,2.79-0.82c0.65-0.55,0.97-1.34,0.97-2.37c0-1.03-0.32-1.83-0.97-2.38c-0.65-0.56-1.58-0.83-2.79-0.83h-4.43
			V47.26z"/>
	</g>
	<g>
		<g>
			<path class="st0" d="M54.85,54.78l4.38-6.66c-1.11-0.21-1.98-0.68-2.62-1.4s-0.96-1.63-0.96-2.73c0-1.32,0.44-2.36,1.33-3.13
				c0.89-0.76,2.09-1.14,3.59-1.14h5.59v15.05h-1.14v-6.52h-4.45h-0.07l-4.31,6.52H54.85z M65.03,40.78H60.6
				c-1.22,0-2.15,0.28-2.79,0.83c-0.65,0.56-0.97,1.35-0.97,2.38c0,1.03,0.32,1.82,0.97,2.37c0.65,0.55,1.58,0.82,2.79,0.82h4.43
				V40.78z"/>
		</g>
	</g>
</g>
</svg>
