<?xml version="1.0" encoding="UTF-8" standalone="no"?><!-- Generator: Gravit.io --><svg xmlns="http://www.w3.org/2000/svg" xmlns:xlink="http://www.w3.org/1999/xlink" style="isolation:isolate" viewBox="0 0 60 58.02" width="60pt" height="58.02pt"><defs><clipPath id="_clipPath_id8SpNuxKLxhlkGXZ7aWzoIUBNgSXjRA"><rect width="60" height="58.02"/></clipPath></defs><g clip-path="url(#_clipPath_id8SpNuxKLxhlkGXZ7aWzoIUBNgSXjRA)"><g><path d=" M 2.71 54.92 L 2 54.92 L 2 1.7 L 2.71 2.41 L 2.71 54.92 Z  M 51.74 11.42 L 51.74 3.48 L 22.79 32.57 L 9.09 18.87 L 9.09 54.92 L 8.39 54.92 L 8.39 8.09 L 27.27 26.97 L 52.45 1.7 C 52.45 12.96 52.45 24.21 52.45 35.47 C 52.21 35.47 51.98 35.47 51.74 35.47 C 51.74 27.81 51.74 20.15 51.74 12.49 L 46.06 18.17 C 46.06 23.92 46.06 29.67 46.06 35.41 C 45.82 35.39 45.59 35.37 45.35 35.35 C 45.35 29.86 45.35 24.37 45.35 18.88 L 27.25 37.05 L 26.75 36.55 L 51.74 11.42 Z  M 9.09 9.86 L 9.09 17.81 L 22.71 31.43 L 26.68 27.46 L 9.09 9.86 Z " fill="rgb(255,255,255)"/></g></g></svg>